;Layer: Drill PTH
;EasyEDA v5.9.42, Tue, 26 Feb 2019 20:51:57 GMT
;04d153d54a3344db93c0417dea638233
;Gerber Generator version 0.2
M48
METRIC,LZ,000.000
;Holesize 1 = 0.310 METRIC
T01C0.310
;Holesize 2 = 0.701 METRIC
T02C0.701
;Holesize 3 = 0.889 METRIC
T03C0.889
;Holesize 4 = 0.900 METRIC
T04C0.900
;Holesize 5 = 0.901 METRIC
T05C0.901
;Holesize 6 = 0.915 METRIC
T06C0.915
;Holesize 7 = 1.200 METRIC
T07C1.200
;Holesize 8 = 3.200 METRIC
T08C3.200
%
G05
G90
T01
X+015796Y+051636
X+026884Y+038299
X+018753Y+044380
X+018834Y+034032
X+022843Y+034032
X+025022Y+035320
X+032654Y+041556
X+028705Y+042139
T02
X+011250Y+027720
X+011250Y+026450
X+011250Y+025180
X+016449Y+037700
X+024049Y+037700
T03
X+041449Y+051186
X+041449Y+048646
X+038909Y+051186
X+038909Y+048646
X+036369Y+051186
X+036369Y+048646
X+033829Y+051186
X+033829Y+048646
X+031289Y+051186
X+031289Y+048646
X+028749Y+051186
X+028749Y+048646
X+026209Y+051186
X+026209Y+048646
X+023669Y+051186
X+023669Y+048646
X+021129Y+051186
X+021129Y+048646
X+018589Y+051186
X+018588Y+048647
X+038909Y+005466
X+038909Y+002926
X+036369Y+005466
X+036369Y+002926
X+033829Y+005466
X+033829Y+002926
X+031289Y+005466
X+031289Y+002926
X+028749Y+005466
X+028749Y+002926
X+026209Y+005466
X+026209Y+002926
X+023669Y+005466
X+023669Y+002926
X+021129Y+005466
X+021128Y+002927
X+026960Y+045198
X+029499Y+045200
X+032039Y+045200
X+034579Y+045200
X+043151Y+010199
X+039849Y+010199
X+004999Y+023407
X+005000Y+025950
X+005000Y+028490
X+005000Y+031030
X+041769Y+038429
X+041769Y+035890
X+041769Y+033350
X+041769Y+030810
X+041769Y+028270
X+041769Y+025730
X+041769Y+023190
X+041769Y+020650
X+041769Y+018110
X+041769Y+015570
T04
X+028000Y+008699
X+035620Y+008699
X+011000Y+039199
X+011000Y+031579
X+018000Y+027449
X+025620Y+027449
X+018000Y+030199
X+025620Y+030199
X+023810Y+008698
X+016190Y+008698
T05
X+006750Y+034930
X+006750Y+037470
T06
X+028768Y+040431
X+028769Y+037890
X+028769Y+035350
X+028769Y+032810
X+028769Y+030270
X+028769Y+027730
X+038149Y+021899
X+038149Y+019400
X+038149Y+016899
X+038151Y+014398
T07
X+004749Y+015449
X+011249Y+015449
X+011249Y+019949
X+004749Y+019949
T08
X+011499Y+045700
X+011499Y+008700
X+048499Y+008700
X+048499Y+045700
M30
