;Layer: Drill PTH
;EasyEDA v5.9.42, Sat, 20 Apr 2019 23:02:29 GMT
;3fcfc4233d194f7ea776cce536db31cf
;Gerber Generator version 0.2
M48
METRIC,LZ,000.000
;Holesize 1 = 0.305 METRIC
T01C0.305
;Holesize 2 = 0.701 METRIC
T02C0.701
;Holesize 3 = 0.712 METRIC
T03C0.712
;Holesize 4 = 0.889 METRIC
T04C0.889
;Holesize 5 = 0.900 METRIC
T05C0.900
;Holesize 6 = 0.915 METRIC
T06C0.915
;Holesize 7 = 1.000 METRIC
T07C1.000
;Holesize 8 = 1.200 METRIC
T08C1.200
;Holesize 9 = 3.200 METRIC
T09C3.200
%
G05
G90
T01
X+045123Y+041825
X+043625Y+026324
X+041499Y+026575
X+046875Y+039949
X+037249Y+026699
X+031999Y+015450
X+023874Y+038700
X+034499Y+040450
X+021249Y+038575
X+022374Y+052700
T02
X+011375Y+025720
X+011375Y+024450
X+011375Y+023180
X+012825Y+034200
X+020424Y+034199
T03
X+027479Y+008324
X+030019Y+008324
T04
X+041449Y+051186
X+041449Y+048646
X+038909Y+051186
X+038909Y+048646
X+036369Y+051186
X+036369Y+048646
X+033829Y+051186
X+033829Y+048646
X+031289Y+051186
X+031289Y+048646
X+028749Y+051186
X+028749Y+048646
X+026209Y+051186
X+026209Y+048646
X+023669Y+051186
X+023669Y+048646
X+021129Y+051186
X+021129Y+048646
X+018589Y+051186
X+018588Y+048647
X+038909Y+005466
X+038909Y+002926
X+036369Y+005466
X+036369Y+002926
X+033829Y+005466
X+033829Y+002926
X+031289Y+005466
X+031289Y+002926
X+028749Y+005466
X+028749Y+002926
X+026209Y+005466
X+026209Y+002926
X+023669Y+005466
X+023669Y+002926
X+021129Y+005466
X+021128Y+002927
X+030960Y+045447
X+033499Y+045450
X+036039Y+045450
X+038579Y+045450
X+005873Y+022407
X+005875Y+024950
X+005875Y+027490
X+005875Y+030030
X+054355Y+016595
X+054355Y+019134
X+054355Y+021674
X+054355Y+024214
X+054355Y+026754
X+054355Y+029294
X+054355Y+031834
X+054355Y+034374
X+054355Y+036914
X+054355Y+039454
X+025039Y+045450
X+022499Y+045450
X+019960Y+045450
T05
X+045124Y+017200
X+045124Y+024820
X+030374Y+032699
X+037994Y+032699
X+025059Y+008324
X+017439Y+008324
X+040309Y+008324
X+032689Y+008324
X+037935Y+037949
X+030315Y+037949
X+030315Y+035324
X+037935Y+035324
X+007874Y+040199
X+007874Y+032579
X+017001Y+026575
X+024621Y+026575
T06
X+038899Y+021274
X+038899Y+018775
X+038899Y+016274
X+038900Y+013773
X+025268Y+029470
X+027810Y+029469
X+030350Y+029469
X+032890Y+029469
X+035430Y+029469
X+037970Y+029469
T07
X+041707Y+010657
X+044042Y+012992
T08
X+004750Y+015075
X+011250Y+015075
X+011250Y+019574
X+004750Y+019574
X+030874Y+042574
X+033414Y+042574
X+035954Y+042574
X+038494Y+042574
X+019999Y+042574
X+022539Y+042574
X+025079Y+042574
T09
X+011499Y+045700
X+011499Y+008700
X+048499Y+008700
X+048499Y+045700
M30
