G04 Layer: TopSilkLayer*
G04 EasyEDA v5.9.42, Tue, 26 Feb 2019 20:51:57 GMT*
G04 04d153d54a3344db93c0417dea638233*
G04 Gerber Generator version 0.2*
G04 Scale: 100 percent, Rotated: No, Reflected: No *
G04 Dimensions in millimeters *
G04 leading zeros omitted , absolute positions ,3 integer and 3 decimal *
%FSLAX33Y33*%
%MOMM*%
G90*
G71D02*

%ADD10C,0.254000*%
%ADD11C,0.499999*%
%ADD27C,0.203200*%
%ADD28C,0.202999*%
%ADD29C,0.299999*%
%ADD30C,0.250012*%
%ADD31C,0.152400*%

%LPD*%

%LPD*%
G36*
G01X26992Y11482D02*
G01X26948Y11486D01*
G01X26921Y11482D01*
G01X26876Y11478D01*
G01X26744Y11467D01*
G01X26661Y11461D01*
G01X26571Y11455D01*
G01X26475Y11449D01*
G01X26377Y11444D01*
G01X26235Y11434D01*
G01X26123Y11424D01*
G01X26038Y11411D01*
G01X25977Y11394D01*
G01X25935Y11372D01*
G01X25909Y11344D01*
G01X25897Y11308D01*
G01X25893Y11263D01*
G01X25894Y11230D01*
G01X25898Y11203D01*
G01X25906Y11180D01*
G01X25921Y11163D01*
G01X25942Y11149D01*
G01X25972Y11140D01*
G01X26013Y11135D01*
G01X26064Y11133D01*
G01X26129Y11135D01*
G01X26208Y11140D01*
G01X26303Y11147D01*
G01X26415Y11157D01*
G01X26522Y11167D01*
G01X26626Y11177D01*
G01X26723Y11188D01*
G01X26812Y11199D01*
G01X26890Y11209D01*
G01X26954Y11218D01*
G01X27003Y11227D01*
G01X27033Y11233D01*
G01X27068Y11256D01*
G01X27086Y11291D01*
G01X27090Y11335D01*
G01X27081Y11381D01*
G01X27060Y11425D01*
G01X27030Y11460D01*
G01X26992Y11482D01*
G37*

%LPD*%
G36*
G01X23114Y11876D02*
G01X23080Y11877D01*
G01X23057Y11870D01*
G01X23043Y11858D01*
G01X23035Y11839D01*
G01X23032Y11813D01*
G01X23031Y11782D01*
G01X23037Y11761D01*
G01X23052Y11737D01*
G01X23077Y11711D01*
G01X23111Y11685D01*
G01X23153Y11657D01*
G01X23203Y11628D01*
G01X23259Y11600D01*
G01X23321Y11571D01*
G01X23388Y11543D01*
G01X23459Y11514D01*
G01X23534Y11487D01*
G01X23612Y11461D01*
G01X23693Y11437D01*
G01X23775Y11415D01*
G01X23857Y11394D01*
G01X23940Y11377D01*
G01X24059Y11358D01*
G01X24137Y11361D01*
G01X24179Y11387D01*
G01X24191Y11437D01*
G01X24187Y11455D01*
G01X24175Y11475D01*
G01X24155Y11495D01*
G01X24127Y11517D01*
G01X24092Y11540D01*
G01X24050Y11563D01*
G01X24001Y11588D01*
G01X23945Y11613D01*
G01X23884Y11639D01*
G01X23816Y11665D01*
G01X23743Y11691D01*
G01X23664Y11717D01*
G01X23521Y11764D01*
G01X23401Y11801D01*
G01X23303Y11831D01*
G01X23224Y11854D01*
G01X23162Y11868D01*
G01X23114Y11876D01*
G37*

%LPD*%
G36*
G01X29724Y12563D02*
G01X29698Y12565D01*
G01X29664Y12557D01*
G01X29618Y12540D01*
G01X29561Y12512D01*
G01X29489Y12473D01*
G01X29400Y12424D01*
G01X29292Y12361D01*
G01X29163Y12286D01*
G01X29079Y12235D01*
G01X29004Y12187D01*
G01X28937Y12143D01*
G01X28879Y12100D01*
G01X28829Y12061D01*
G01X28789Y12025D01*
G01X28757Y11992D01*
G01X28734Y11963D01*
G01X28720Y11936D01*
G01X28716Y11913D01*
G01X28720Y11894D01*
G01X28733Y11878D01*
G01X28756Y11866D01*
G01X28788Y11858D01*
G01X28829Y11854D01*
G01X28880Y11853D01*
G01X28917Y11858D01*
G01X28961Y11869D01*
G01X29011Y11886D01*
G01X29065Y11909D01*
G01X29123Y11937D01*
G01X29183Y11969D01*
G01X29246Y12004D01*
G01X29309Y12043D01*
G01X29372Y12083D01*
G01X29434Y12124D01*
G01X29494Y12167D01*
G01X29550Y12210D01*
G01X29604Y12252D01*
G01X29651Y12293D01*
G01X29693Y12333D01*
G01X29729Y12370D01*
G01X29756Y12404D01*
G01X29775Y12434D01*
G01X29785Y12460D01*
G01X29783Y12481D01*
G01X29771Y12512D01*
G01X29758Y12536D01*
G01X29743Y12554D01*
G01X29724Y12563D01*
G37*

%LPD*%
G36*
G01X25401Y24165D02*
G01X25324Y24165D01*
G01X25251Y24164D01*
G01X25181Y24163D01*
G01X25114Y24161D01*
G01X25050Y24159D01*
G01X24989Y24156D01*
G01X24930Y24152D01*
G01X24873Y24147D01*
G01X24817Y24141D01*
G01X24762Y24134D01*
G01X24708Y24127D01*
G01X24655Y24119D01*
G01X24602Y24110D01*
G01X24548Y24099D01*
G01X24495Y24088D01*
G01X24440Y24076D01*
G01X24385Y24063D01*
G01X24269Y24033D01*
G01X24209Y24017D01*
G01X24149Y24000D01*
G01X24090Y23982D01*
G01X23970Y23944D01*
G01X23910Y23924D01*
G01X23850Y23903D01*
G01X23791Y23882D01*
G01X23731Y23860D01*
G01X23672Y23837D01*
G01X23612Y23813D01*
G01X23552Y23788D01*
G01X23493Y23764D01*
G01X23434Y23738D01*
G01X23257Y23657D01*
G01X23198Y23628D01*
G01X23140Y23600D01*
G01X23081Y23570D01*
G01X22966Y23509D01*
G01X22908Y23478D01*
G01X22851Y23446D01*
G01X22737Y23380D01*
G01X22681Y23347D01*
G01X22624Y23312D01*
G01X22568Y23277D01*
G01X22458Y23206D01*
G01X22403Y23170D01*
G01X22348Y23133D01*
G01X22294Y23096D01*
G01X22241Y23058D01*
G01X22187Y23019D01*
G01X22134Y22981D01*
G01X22082Y22942D01*
G01X22030Y22902D01*
G01X21979Y22861D01*
G01X21928Y22821D01*
G01X21877Y22780D01*
G01X21778Y22697D01*
G01X21729Y22655D01*
G01X21633Y22569D01*
G01X21586Y22526D01*
G01X21540Y22481D01*
G01X21493Y22438D01*
G01X21403Y22348D01*
G01X21316Y22258D01*
G01X21273Y22212D01*
G01X21190Y22120D01*
G01X21110Y22026D01*
G01X21071Y21979D01*
G01X21041Y21941D01*
G01X21010Y21902D01*
G01X20979Y21861D01*
G01X20917Y21775D01*
G01X20885Y21730D01*
G01X20854Y21683D01*
G01X20822Y21635D01*
G01X20790Y21586D01*
G01X20726Y21484D01*
G01X20694Y21432D01*
G01X20663Y21379D01*
G01X20599Y21269D01*
G01X20568Y21213D01*
G01X20536Y21157D01*
G01X20505Y21100D01*
G01X20474Y21042D01*
G01X20444Y20984D01*
G01X20413Y20926D01*
G01X20383Y20867D01*
G01X20354Y20808D01*
G01X20296Y20689D01*
G01X20240Y20570D01*
G01X20213Y20511D01*
G01X20187Y20451D01*
G01X20161Y20392D01*
G01X20135Y20334D01*
G01X20111Y20275D01*
G01X20087Y20217D01*
G01X20064Y20159D01*
G01X20041Y20102D01*
G01X19999Y19990D01*
G01X19979Y19934D01*
G01X19961Y19880D01*
G01X19943Y19827D01*
G01X19926Y19774D01*
G01X19910Y19722D01*
G01X19882Y19622D01*
G01X19870Y19577D01*
G01X19859Y19530D01*
G01X19848Y19480D01*
G01X19838Y19429D01*
G01X19829Y19376D01*
G01X19819Y19321D01*
G01X19811Y19265D01*
G01X19803Y19207D01*
G01X19796Y19147D01*
G01X19788Y19087D01*
G01X19776Y18961D01*
G01X19770Y18897D01*
G01X19765Y18832D01*
G01X19761Y18766D01*
G01X19757Y18699D01*
G01X19753Y18631D01*
G01X19750Y18563D01*
G01X19746Y18425D01*
G01X19743Y18215D01*
G01X19743Y18145D01*
G01X19746Y17935D01*
G01X19748Y17866D01*
G01X19751Y17797D01*
G01X19754Y17729D01*
G01X19758Y17660D01*
G01X19762Y17593D01*
G01X19772Y17461D01*
G01X19777Y17396D01*
G01X19783Y17333D01*
G01X19790Y17270D01*
G01X19797Y17209D01*
G01X19804Y17149D01*
G01X19812Y17090D01*
G01X19821Y17033D01*
G01X19830Y16978D01*
G01X19840Y16924D01*
G01X19849Y16872D01*
G01X19860Y16821D01*
G01X19871Y16773D01*
G01X19883Y16727D01*
G01X19895Y16683D01*
G01X19913Y16619D01*
G01X19932Y16556D01*
G01X19952Y16493D01*
G01X19971Y16431D01*
G01X19991Y16370D01*
G01X20033Y16248D01*
G01X20054Y16188D01*
G01X20098Y16070D01*
G01X20167Y15896D01*
G01X20191Y15839D01*
G01X20215Y15783D01*
G01X20240Y15727D01*
G01X20291Y15616D01*
G01X20344Y15508D01*
G01X20399Y15401D01*
G01X20455Y15295D01*
G01X20514Y15192D01*
G01X20544Y15140D01*
G01X20574Y15089D01*
G01X20637Y14988D01*
G01X20669Y14939D01*
G01X20702Y14889D01*
G01X20735Y14840D01*
G01X20803Y14742D01*
G01X20839Y14694D01*
G01X20874Y14645D01*
G01X20910Y14598D01*
G01X20947Y14550D01*
G01X20984Y14503D01*
G01X21060Y14409D01*
G01X21138Y14317D01*
G01X21261Y14179D01*
G01X21303Y14134D01*
G01X21432Y13999D01*
G01X21522Y13909D01*
G01X21614Y13821D01*
G01X21661Y13777D01*
G01X21714Y13728D01*
G01X21767Y13680D01*
G01X21819Y13634D01*
G01X21870Y13588D01*
G01X21972Y13500D01*
G01X22022Y13458D01*
G01X22072Y13417D01*
G01X22122Y13377D01*
G01X22171Y13338D01*
G01X22220Y13300D01*
G01X22270Y13263D01*
G01X22318Y13227D01*
G01X22368Y13191D01*
G01X22416Y13157D01*
G01X22465Y13123D01*
G01X22514Y13090D01*
G01X22563Y13058D01*
G01X22612Y13027D01*
G01X22712Y12967D01*
G01X22812Y12909D01*
G01X22862Y12881D01*
G01X22913Y12854D01*
G01X22965Y12827D01*
G01X23017Y12801D01*
G01X23069Y12776D01*
G01X23175Y12726D01*
G01X23230Y12702D01*
G01X23285Y12679D01*
G01X23340Y12655D01*
G01X23397Y12632D01*
G01X23454Y12610D01*
G01X23512Y12588D01*
G01X23571Y12566D01*
G01X23631Y12544D01*
G01X23691Y12523D01*
G01X23753Y12502D01*
G01X23822Y12479D01*
G01X23889Y12458D01*
G01X23955Y12437D01*
G01X24021Y12417D01*
G01X24086Y12398D01*
G01X24150Y12379D01*
G01X24214Y12362D01*
G01X24277Y12345D01*
G01X24340Y12329D01*
G01X24402Y12314D01*
G01X24526Y12286D01*
G01X24587Y12274D01*
G01X24648Y12261D01*
G01X24709Y12250D01*
G01X24831Y12230D01*
G01X24891Y12221D01*
G01X24952Y12213D01*
G01X25074Y12199D01*
G01X25135Y12193D01*
G01X25196Y12188D01*
G01X25320Y12180D01*
G01X25382Y12177D01*
G01X25444Y12175D01*
G01X25508Y12174D01*
G01X25571Y12173D01*
G01X25635Y12172D01*
G01X25765Y12174D01*
G01X25831Y12176D01*
G01X25898Y12178D01*
G01X25965Y12182D01*
G01X26034Y12185D01*
G01X26103Y12190D01*
G01X26174Y12195D01*
G01X26245Y12201D01*
G01X26317Y12207D01*
G01X26384Y12214D01*
G01X26516Y12228D01*
G01X26581Y12237D01*
G01X26646Y12245D01*
G01X26711Y12255D01*
G01X26775Y12264D01*
G01X26903Y12286D01*
G01X26966Y12298D01*
G01X27028Y12310D01*
G01X27090Y12323D01*
G01X27152Y12337D01*
G01X27213Y12350D01*
G01X27335Y12380D01*
G01X27455Y12412D01*
G01X27574Y12447D01*
G01X27633Y12465D01*
G01X27749Y12503D01*
G01X27807Y12524D01*
G01X27865Y12544D01*
G01X27922Y12565D01*
G01X27979Y12587D01*
G01X28035Y12609D01*
G01X28092Y12633D01*
G01X28148Y12657D01*
G01X28203Y12681D01*
G01X28313Y12731D01*
G01X28368Y12758D01*
G01X28422Y12785D01*
G01X28477Y12812D01*
G01X28531Y12840D01*
G01X28637Y12898D01*
G01X28691Y12928D01*
G01X28744Y12959D01*
G01X28796Y12990D01*
G01X28848Y13022D01*
G01X28952Y13088D01*
G01X29004Y13123D01*
G01X29055Y13157D01*
G01X29106Y13192D01*
G01X29157Y13228D01*
G01X29208Y13265D01*
G01X29258Y13302D01*
G01X29308Y13340D01*
G01X29408Y13418D01*
G01X29458Y13458D01*
G01X29507Y13498D01*
G01X29606Y13581D01*
G01X29654Y13624D01*
G01X29703Y13667D01*
G01X29793Y13749D01*
G01X29837Y13791D01*
G01X29880Y13833D01*
G01X29924Y13876D01*
G01X29967Y13920D01*
G01X30009Y13964D01*
G01X30052Y14009D01*
G01X30094Y14054D01*
G01X30136Y14100D01*
G01X30177Y14146D01*
G01X30258Y14241D01*
G01X30299Y14288D01*
G01X30338Y14337D01*
G01X30416Y14434D01*
G01X30493Y14534D01*
G01X30530Y14585D01*
G01X30567Y14635D01*
G01X30604Y14687D01*
G01X30640Y14738D01*
G01X30675Y14790D01*
G01X30746Y14895D01*
G01X30780Y14948D01*
G01X30813Y15001D01*
G01X30847Y15055D01*
G01X30879Y15109D01*
G01X30943Y15218D01*
G01X30974Y15272D01*
G01X31005Y15327D01*
G01X31035Y15383D01*
G01X31064Y15438D01*
G01X31093Y15494D01*
G01X31149Y15606D01*
G01X31203Y15718D01*
G01X31229Y15775D01*
G01X31279Y15889D01*
G01X31327Y16002D01*
G01X31350Y16060D01*
G01X31393Y16175D01*
G01X31414Y16232D01*
G01X31434Y16289D01*
G01X31454Y16347D01*
G01X31473Y16405D01*
G01X31491Y16462D01*
G01X31509Y16520D01*
G01X31526Y16577D01*
G01X31542Y16635D01*
G01X31557Y16692D01*
G01X31572Y16750D01*
G01X31586Y16808D01*
G01X31599Y16862D01*
G01X31611Y16917D01*
G01X31633Y17031D01*
G01X31643Y17089D01*
G01X31652Y17148D01*
G01X31660Y17208D01*
G01X31669Y17269D01*
G01X31683Y17393D01*
G01X31689Y17456D01*
G01X31695Y17520D01*
G01X31705Y17648D01*
G01X31712Y17779D01*
G01X31718Y17977D01*
G01X31719Y18112D01*
G01X31716Y18313D01*
G01X31714Y18380D01*
G01X31708Y18514D01*
G01X31704Y18581D01*
G01X31699Y18648D01*
G01X31694Y18714D01*
G01X31682Y18846D01*
G01X31675Y18912D01*
G01X31668Y18977D01*
G01X31659Y19041D01*
G01X31651Y19105D01*
G01X31642Y19169D01*
G01X31632Y19231D01*
G01X31621Y19294D01*
G01X31611Y19355D01*
G01X31599Y19416D01*
G01X31587Y19476D01*
G01X31574Y19535D01*
G01X31561Y19593D01*
G01X31547Y19650D01*
G01X31533Y19706D01*
G01X31518Y19762D01*
G01X31502Y19815D01*
G01X31466Y19936D01*
G01X31447Y19996D01*
G01X31427Y20056D01*
G01X31406Y20115D01*
G01X31386Y20174D01*
G01X31342Y20290D01*
G01X31320Y20349D01*
G01X31297Y20406D01*
G01X31274Y20464D01*
G01X31250Y20521D01*
G01X31226Y20577D01*
G01X31201Y20634D01*
G01X31149Y20746D01*
G01X31123Y20801D01*
G01X31069Y20911D01*
G01X31041Y20966D01*
G01X31012Y21019D01*
G01X30954Y21127D01*
G01X30924Y21179D01*
G01X30894Y21232D01*
G01X30863Y21285D01*
G01X30832Y21336D01*
G01X30768Y21439D01*
G01X30735Y21490D01*
G01X30668Y21590D01*
G01X30634Y21640D01*
G01X30600Y21689D01*
G01X30565Y21738D01*
G01X30529Y21787D01*
G01X30457Y21882D01*
G01X30383Y21977D01*
G01X30345Y22024D01*
G01X30307Y22069D01*
G01X30269Y22115D01*
G01X30229Y22161D01*
G01X30150Y22250D01*
G01X30069Y22338D01*
G01X30028Y22381D01*
G01X29986Y22424D01*
G01X29902Y22508D01*
G01X29859Y22549D01*
G01X29815Y22591D01*
G01X29772Y22631D01*
G01X29728Y22671D01*
G01X29639Y22751D01*
G01X29593Y22789D01*
G01X29548Y22827D01*
G01X29501Y22865D01*
G01X29455Y22903D01*
G01X29408Y22940D01*
G01X29313Y23012D01*
G01X29265Y23048D01*
G01X29217Y23083D01*
G01X29168Y23118D01*
G01X29119Y23152D01*
G01X29070Y23185D01*
G01X28969Y23252D01*
G01X28919Y23284D01*
G01X28816Y23347D01*
G01X28764Y23377D01*
G01X28713Y23407D01*
G01X28660Y23437D01*
G01X28554Y23495D01*
G01X28501Y23523D01*
G01X28447Y23550D01*
G01X28392Y23578D01*
G01X28338Y23604D01*
G01X28276Y23634D01*
G01X28216Y23661D01*
G01X28156Y23689D01*
G01X28097Y23715D01*
G01X28039Y23741D01*
G01X27983Y23765D01*
G01X27926Y23788D01*
G01X27870Y23811D01*
G01X27814Y23833D01*
G01X27759Y23854D01*
G01X27649Y23892D01*
G01X27594Y23910D01*
G01X27540Y23928D01*
G01X27430Y23960D01*
G01X27375Y23975D01*
G01X27320Y23989D01*
G01X27264Y24003D01*
G01X27208Y24016D01*
G01X27151Y24028D01*
G01X27094Y24039D01*
G01X27036Y24051D01*
G01X26976Y24061D01*
G01X26917Y24070D01*
G01X26856Y24080D01*
G01X26794Y24088D01*
G01X26731Y24096D01*
G01X26667Y24103D01*
G01X26601Y24110D01*
G01X26534Y24117D01*
G01X26466Y24123D01*
G01X26396Y24128D01*
G01X26324Y24133D01*
G01X26250Y24138D01*
G01X26175Y24142D01*
G01X26098Y24146D01*
G01X26019Y24149D01*
G01X25938Y24153D01*
G01X25855Y24155D01*
G01X25753Y24158D01*
G01X25658Y24161D01*
G01X25567Y24163D01*
G01X25482Y24164D01*
G01X25401Y24165D01*
G37*

%LPC*%
G36*
G01X25411Y22382D02*
G01X25332Y22382D01*
G01X25255Y22381D01*
G01X25179Y22381D01*
G01X25105Y22380D01*
G01X24963Y22378D01*
G01X24895Y22376D01*
G01X24828Y22374D01*
G01X24762Y22372D01*
G01X24698Y22369D01*
G01X24635Y22366D01*
G01X24573Y22363D01*
G01X24513Y22358D01*
G01X24453Y22354D01*
G01X24395Y22350D01*
G01X24337Y22345D01*
G01X24281Y22340D01*
G01X24224Y22335D01*
G01X24169Y22328D01*
G01X24060Y22315D01*
G01X24006Y22308D01*
G01X23900Y22292D01*
G01X23795Y22275D01*
G01X23742Y22265D01*
G01X23690Y22255D01*
G01X23637Y22245D01*
G01X23531Y22222D01*
G01X23478Y22210D01*
G01X23424Y22198D01*
G01X23370Y22185D01*
G01X23316Y22171D01*
G01X23261Y22157D01*
G01X23205Y22143D01*
G01X23148Y22127D01*
G01X23090Y22112D01*
G01X23032Y22095D01*
G01X22973Y22079D01*
G01X22913Y22061D01*
G01X22856Y22045D01*
G01X22798Y22027D01*
G01X22682Y21989D01*
G01X22622Y21968D01*
G01X22503Y21926D01*
G01X22383Y21880D01*
G01X22263Y21832D01*
G01X22143Y21782D01*
G01X22083Y21756D01*
G01X21965Y21703D01*
G01X21849Y21649D01*
G01X21735Y21593D01*
G01X21625Y21537D01*
G01X21571Y21508D01*
G01X21518Y21479D01*
G01X21466Y21451D01*
G01X21366Y21393D01*
G01X21318Y21364D01*
G01X21272Y21335D01*
G01X21227Y21307D01*
G01X21183Y21278D01*
G01X21141Y21250D01*
G01X20788Y21007D01*
G01X20788Y20263D01*
G01X20790Y20142D01*
G01X20794Y20022D01*
G01X20797Y19961D01*
G01X20800Y19901D01*
G01X20804Y19841D01*
G01X20809Y19781D01*
G01X20813Y19720D01*
G01X20819Y19660D01*
G01X20824Y19600D01*
G01X20845Y19420D01*
G01X20853Y19360D01*
G01X20870Y19240D01*
G01X20880Y19179D01*
G01X20889Y19119D01*
G01X20900Y19060D01*
G01X20911Y18999D01*
G01X20922Y18939D01*
G01X20934Y18879D01*
G01X20947Y18819D01*
G01X20960Y18758D01*
G01X20973Y18698D01*
G01X20987Y18638D01*
G01X21002Y18578D01*
G01X21017Y18517D01*
G01X21049Y18397D01*
G01X21066Y18337D01*
G01X21082Y18276D01*
G01X21100Y18215D01*
G01X21118Y18155D01*
G01X21137Y18094D01*
G01X21157Y18034D01*
G01X21176Y17973D01*
G01X21197Y17912D01*
G01X21217Y17851D01*
G01X21239Y17791D01*
G01X21283Y17669D01*
G01X21306Y17608D01*
G01X21354Y17486D01*
G01X21403Y17363D01*
G01X21429Y17302D01*
G01X21455Y17240D01*
G01X21482Y17178D01*
G01X21509Y17117D01*
G01X21565Y16993D01*
G01X21594Y16931D01*
G01X21623Y16870D01*
G01X21653Y16808D01*
G01X21684Y16746D01*
G01X21715Y16683D01*
G01X21746Y16621D01*
G01X21777Y16560D01*
G01X21841Y16438D01*
G01X21906Y16317D01*
G01X21939Y16257D01*
G01X22005Y16138D01*
G01X22038Y16080D01*
G01X22072Y16021D01*
G01X22141Y15905D01*
G01X22175Y15847D01*
G01X22210Y15790D01*
G01X22280Y15677D01*
G01X22316Y15621D01*
G01X22351Y15565D01*
G01X22423Y15455D01*
G01X22497Y15346D01*
G01X22533Y15292D01*
G01X22607Y15186D01*
G01X22645Y15133D01*
G01X22721Y15029D01*
G01X22797Y14926D01*
G01X22835Y14876D01*
G01X22874Y14825D01*
G01X22913Y14776D01*
G01X22991Y14677D01*
G01X23031Y14628D01*
G01X23071Y14580D01*
G01X23110Y14532D01*
G01X23150Y14485D01*
G01X23231Y14391D01*
G01X23271Y14345D01*
G01X23435Y14165D01*
G01X23477Y14122D01*
G01X23518Y14078D01*
G01X23602Y13993D01*
G01X23686Y13909D01*
G01X23728Y13868D01*
G01X23771Y13827D01*
G01X23813Y13787D01*
G01X23856Y13747D01*
G01X23899Y13708D01*
G01X23941Y13669D01*
G01X23985Y13631D01*
G01X24028Y13593D01*
G01X24071Y13556D01*
G01X24159Y13483D01*
G01X24246Y13412D01*
G01X24290Y13377D01*
G01X24379Y13308D01*
G01X24467Y13242D01*
G01X24512Y13210D01*
G01X24601Y13147D01*
G01X24646Y13116D01*
G01X24691Y13086D01*
G01X24786Y13023D01*
G01X24875Y12964D01*
G01X24958Y12910D01*
G01X25036Y12860D01*
G01X25108Y12814D01*
G01X25175Y12772D01*
G01X25238Y12735D01*
G01X25297Y12701D01*
G01X25353Y12672D01*
G01X25404Y12646D01*
G01X25454Y12624D01*
G01X25500Y12605D01*
G01X25544Y12591D01*
G01X25586Y12579D01*
G01X25627Y12571D01*
G01X25667Y12567D01*
G01X25706Y12565D01*
G01X25745Y12567D01*
G01X25784Y12571D01*
G01X25823Y12579D01*
G01X25863Y12589D01*
G01X25904Y12602D01*
G01X25947Y12618D01*
G01X25991Y12637D01*
G01X26038Y12658D01*
G01X26088Y12681D01*
G01X26196Y12735D01*
G01X26241Y12758D01*
G01X26287Y12782D01*
G01X26332Y12807D01*
G01X26378Y12832D01*
G01X26423Y12857D01*
G01X26513Y12911D01*
G01X26559Y12938D01*
G01X26604Y12966D01*
G01X26694Y13024D01*
G01X26738Y13054D01*
G01X26784Y13084D01*
G01X26828Y13115D01*
G01X26873Y13146D01*
G01X26918Y13178D01*
G01X26962Y13211D01*
G01X27007Y13244D01*
G01X27051Y13277D01*
G01X27095Y13311D01*
G01X27183Y13381D01*
G01X27271Y13453D01*
G01X27315Y13490D01*
G01X27358Y13527D01*
G01X27402Y13564D01*
G01X27445Y13603D01*
G01X27531Y13680D01*
G01X27574Y13719D01*
G01X27659Y13800D01*
G01X27702Y13840D01*
G01X27786Y13924D01*
G01X27871Y14008D01*
G01X27912Y14051D01*
G01X27954Y14094D01*
G01X28036Y14182D01*
G01X28078Y14227D01*
G01X28159Y14317D01*
G01X28199Y14363D01*
G01X28240Y14409D01*
G01X28280Y14456D01*
G01X28399Y14597D01*
G01X28477Y14694D01*
G01X28515Y14742D01*
G01X28554Y14791D01*
G01X28630Y14890D01*
G01X28706Y14990D01*
G01X28744Y15041D01*
G01X28818Y15143D01*
G01X28854Y15194D01*
G01X28890Y15246D01*
G01X28927Y15298D01*
G01X28998Y15402D01*
G01X29034Y15455D01*
G01X29069Y15509D01*
G01X29104Y15561D01*
G01X29206Y15723D01*
G01X29273Y15832D01*
G01X29306Y15887D01*
G01X29339Y15941D01*
G01X29404Y16052D01*
G01X29435Y16108D01*
G01X29498Y16219D01*
G01X29529Y16275D01*
G01X29590Y16388D01*
G01X29650Y16502D01*
G01X29708Y16616D01*
G01X29765Y16730D01*
G01X29793Y16788D01*
G01X29820Y16846D01*
G01X29847Y16903D01*
G01X29874Y16961D01*
G01X29926Y17077D01*
G01X29952Y17136D01*
G01X30027Y17311D01*
G01X30051Y17369D01*
G01X30074Y17428D01*
G01X30098Y17487D01*
G01X30121Y17546D01*
G01X30165Y17664D01*
G01X30208Y17781D01*
G01X30229Y17841D01*
G01X30250Y17900D01*
G01X30270Y17959D01*
G01X30327Y18136D01*
G01X30345Y18196D01*
G01X30381Y18314D01*
G01X30398Y18373D01*
G01X30414Y18433D01*
G01X30446Y18551D01*
G01X30475Y18669D01*
G01X30490Y18728D01*
G01X30529Y18905D01*
G01X30541Y18963D01*
G01X30554Y19022D01*
G01X30565Y19081D01*
G01X30575Y19140D01*
G01X30596Y19257D01*
G01X30605Y19315D01*
G01X30613Y19373D01*
G01X30627Y19466D01*
G01X30638Y19557D01*
G01X30648Y19647D01*
G01X30657Y19736D01*
G01X30665Y19824D01*
G01X30671Y19909D01*
G01X30676Y19993D01*
G01X30680Y20075D01*
G01X30682Y20155D01*
G01X30683Y20232D01*
G01X30683Y20308D01*
G01X30681Y20381D01*
G01X30678Y20452D01*
G01X30674Y20520D01*
G01X30669Y20586D01*
G01X30663Y20648D01*
G01X30655Y20707D01*
G01X30646Y20764D01*
G01X30636Y20817D01*
G01X30625Y20867D01*
G01X30612Y20913D01*
G01X30598Y20956D01*
G01X30583Y20995D01*
G01X30567Y21031D01*
G01X30550Y21062D01*
G01X30532Y21089D01*
G01X30512Y21112D01*
G01X30492Y21131D01*
G01X30462Y21152D01*
G01X30430Y21175D01*
G01X30394Y21199D01*
G01X30356Y21224D01*
G01X30315Y21249D01*
G01X30271Y21275D01*
G01X30225Y21302D01*
G01X30176Y21329D01*
G01X30126Y21357D01*
G01X30073Y21385D01*
G01X30018Y21414D01*
G01X29962Y21442D01*
G01X29903Y21471D01*
G01X29843Y21501D01*
G01X29782Y21530D01*
G01X29720Y21560D01*
G01X29656Y21589D01*
G01X29526Y21649D01*
G01X29325Y21736D01*
G01X29189Y21793D01*
G01X29121Y21821D01*
G01X28985Y21875D01*
G01X28917Y21901D01*
G01X28850Y21927D01*
G01X28783Y21952D01*
G01X28717Y21976D01*
G01X28652Y21999D01*
G01X28588Y22022D01*
G01X28524Y22043D01*
G01X28462Y22064D01*
G01X28402Y22083D01*
G01X28342Y22101D01*
G01X28285Y22119D01*
G01X28229Y22134D01*
G01X28175Y22149D01*
G01X28119Y22163D01*
G01X28065Y22178D01*
G01X28013Y22191D01*
G01X27911Y22215D01*
G01X27863Y22226D01*
G01X27814Y22237D01*
G01X27767Y22247D01*
G01X27719Y22257D01*
G01X27625Y22275D01*
G01X27578Y22283D01*
G01X27531Y22290D01*
G01X27483Y22297D01*
G01X27434Y22304D01*
G01X27385Y22310D01*
G01X27283Y22322D01*
G01X27230Y22327D01*
G01X27175Y22332D01*
G01X27118Y22336D01*
G01X27059Y22340D01*
G01X26999Y22344D01*
G01X26936Y22348D01*
G01X26871Y22351D01*
G01X26802Y22354D01*
G01X26731Y22357D01*
G01X26657Y22360D01*
G01X26580Y22363D01*
G01X26499Y22365D01*
G01X26415Y22367D01*
G01X26326Y22369D01*
G01X26234Y22371D01*
G01X26138Y22373D01*
G01X26037Y22375D01*
G01X25932Y22377D01*
G01X25839Y22378D01*
G01X25749Y22379D01*
G01X25661Y22380D01*
G01X25576Y22381D01*
G01X25492Y22381D01*
G01X25411Y22382D01*
G37*

%LPD*%
G36*
G01X20730Y13513D02*
G01X20703Y13515D01*
G01X20680Y13511D01*
G01X20659Y13500D01*
G01X20641Y13482D01*
G01X20628Y13462D01*
G01X20621Y13439D01*
G01X20622Y13414D01*
G01X20630Y13386D01*
G01X20645Y13354D01*
G01X20670Y13318D01*
G01X20703Y13277D01*
G01X20745Y13231D01*
G01X20797Y13179D01*
G01X20859Y13120D01*
G01X20931Y13055D01*
G01X21014Y12982D01*
G01X21076Y12928D01*
G01X21137Y12876D01*
G01X21195Y12827D01*
G01X21250Y12781D01*
G01X21301Y12739D01*
G01X21348Y12700D01*
G01X21391Y12667D01*
G01X21427Y12638D01*
G01X21458Y12615D01*
G01X21483Y12598D01*
G01X21499Y12587D01*
G01X21509Y12584D01*
G01X21526Y12592D01*
G01X21546Y12615D01*
G01X21567Y12648D01*
G01X21585Y12688D01*
G01X21587Y12706D01*
G01X21582Y12731D01*
G01X21569Y12760D01*
G01X21548Y12794D01*
G01X21522Y12832D01*
G01X21489Y12875D01*
G01X21450Y12920D01*
G01X21405Y12969D01*
G01X21355Y13021D01*
G01X21300Y13075D01*
G01X21240Y13131D01*
G01X21176Y13189D01*
G01X21091Y13263D01*
G01X21016Y13326D01*
G01X20950Y13380D01*
G01X20893Y13423D01*
G01X20843Y13458D01*
G01X20799Y13485D01*
G01X20762Y13502D01*
G01X20730Y13513D01*
G37*

%LPD*%
G36*
G01X25837Y21540D02*
G01X25736Y21540D01*
G01X25684Y21539D01*
G01X25633Y21538D01*
G01X25580Y21536D01*
G01X25526Y21534D01*
G01X25471Y21531D01*
G01X25415Y21528D01*
G01X25297Y21520D01*
G01X25235Y21515D01*
G01X25171Y21510D01*
G01X25105Y21504D01*
G01X25037Y21498D01*
G01X24965Y21491D01*
G01X24891Y21484D01*
G01X24814Y21476D01*
G01X24733Y21468D01*
G01X24663Y21460D01*
G01X24592Y21452D01*
G01X24519Y21443D01*
G01X24447Y21432D01*
G01X24374Y21421D01*
G01X24300Y21410D01*
G01X24226Y21397D01*
G01X24151Y21384D01*
G01X24077Y21369D01*
G01X24001Y21355D01*
G01X23851Y21324D01*
G01X23701Y21290D01*
G01X23626Y21272D01*
G01X23551Y21255D01*
G01X23477Y21236D01*
G01X23403Y21216D01*
G01X23330Y21197D01*
G01X23258Y21177D01*
G01X23185Y21157D01*
G01X23114Y21136D01*
G01X22974Y21094D01*
G01X22838Y21050D01*
G01X22706Y21006D01*
G01X22580Y20960D01*
G01X22519Y20938D01*
G01X22460Y20915D01*
G01X22402Y20892D01*
G01X22346Y20869D01*
G01X22292Y20846D01*
G01X22240Y20823D01*
G01X22189Y20800D01*
G01X22141Y20777D01*
G01X22094Y20754D01*
G01X22050Y20732D01*
G01X22008Y20709D01*
G01X21968Y20687D01*
G01X21931Y20664D01*
G01X21896Y20642D01*
G01X21864Y20621D01*
G01X21835Y20599D01*
G01X21808Y20578D01*
G01X21784Y20557D01*
G01X21763Y20536D01*
G01X21745Y20516D01*
G01X21730Y20496D01*
G01X21718Y20477D01*
G01X21710Y20458D01*
G01X21704Y20432D01*
G01X21699Y20401D01*
G01X21695Y20365D01*
G01X21692Y20323D01*
G01X21690Y20278D01*
G01X21690Y20227D01*
G01X21691Y20173D01*
G01X21693Y20114D01*
G01X21697Y20052D01*
G01X21701Y19988D01*
G01X21706Y19920D01*
G01X21712Y19849D01*
G01X21719Y19777D01*
G01X21728Y19703D01*
G01X21746Y19551D01*
G01X21757Y19473D01*
G01X21781Y19317D01*
G01X21794Y19238D01*
G01X21808Y19161D01*
G01X21822Y19083D01*
G01X21837Y19007D01*
G01X21869Y18859D01*
G01X21886Y18789D01*
G01X21903Y18720D01*
G01X21918Y18663D01*
G01X21934Y18605D01*
G01X21950Y18548D01*
G01X21967Y18490D01*
G01X22021Y18316D01*
G01X22040Y18258D01*
G01X22060Y18199D01*
G01X22081Y18141D01*
G01X22102Y18082D01*
G01X22123Y18024D01*
G01X22167Y17906D01*
G01X22214Y17788D01*
G01X22263Y17670D01*
G01X22288Y17611D01*
G01X22366Y17434D01*
G01X22393Y17375D01*
G01X22420Y17317D01*
G01X22448Y17258D01*
G01X22505Y17140D01*
G01X22564Y17023D01*
G01X22594Y16965D01*
G01X22687Y16791D01*
G01X22751Y16675D01*
G01X22783Y16618D01*
G01X22849Y16503D01*
G01X22916Y16389D01*
G01X22950Y16333D01*
G01X22984Y16276D01*
G01X23089Y16109D01*
G01X23126Y16053D01*
G01X23161Y15998D01*
G01X23198Y15943D01*
G01X23234Y15889D01*
G01X23308Y15781D01*
G01X23346Y15728D01*
G01X23421Y15622D01*
G01X23459Y15570D01*
G01X23497Y15517D01*
G01X23653Y15313D01*
G01X23692Y15263D01*
G01X23732Y15213D01*
G01X23771Y15164D01*
G01X23851Y15068D01*
G01X23892Y15020D01*
G01X23972Y14926D01*
G01X24054Y14834D01*
G01X24136Y14744D01*
G01X24218Y14656D01*
G01X24259Y14613D01*
G01X24384Y14488D01*
G01X24426Y14447D01*
G01X24468Y14407D01*
G01X24509Y14368D01*
G01X24551Y14330D01*
G01X24593Y14291D01*
G01X24677Y14217D01*
G01X24719Y14181D01*
G01X24761Y14146D01*
G01X24802Y14111D01*
G01X24845Y14078D01*
G01X24886Y14044D01*
G01X24970Y13980D01*
G01X25012Y13949D01*
G01X25054Y13919D01*
G01X25096Y13890D01*
G01X25137Y13861D01*
G01X25179Y13833D01*
G01X25221Y13806D01*
G01X25262Y13780D01*
G01X25303Y13755D01*
G01X25735Y13495D01*
G01X26103Y13711D01*
G01X26135Y13731D01*
G01X26171Y13754D01*
G01X26211Y13782D01*
G01X26253Y13812D01*
G01X26299Y13847D01*
G01X26346Y13884D01*
G01X26397Y13924D01*
G01X26449Y13966D01*
G01X26503Y14011D01*
G01X26559Y14058D01*
G01X26616Y14107D01*
G01X26674Y14157D01*
G01X26733Y14208D01*
G01X26792Y14261D01*
G01X26910Y14369D01*
G01X26969Y14424D01*
G01X27026Y14479D01*
G01X27084Y14534D01*
G01X27140Y14589D01*
G01X27184Y14634D01*
G01X27229Y14679D01*
G01X27273Y14724D01*
G01X27317Y14770D01*
G01X27360Y14817D01*
G01X27404Y14864D01*
G01X27447Y14912D01*
G01X27532Y15008D01*
G01X27575Y15057D01*
G01X27701Y15207D01*
G01X27742Y15258D01*
G01X27783Y15308D01*
G01X27865Y15412D01*
G01X27905Y15464D01*
G01X27985Y15570D01*
G01X28063Y15676D01*
G01X28101Y15730D01*
G01X28178Y15839D01*
G01X28253Y15949D01*
G01X28290Y16004D01*
G01X28363Y16116D01*
G01X28435Y16228D01*
G01X28470Y16285D01*
G01X28505Y16341D01*
G01X28539Y16399D01*
G01X28573Y16455D01*
G01X28640Y16570D01*
G01X28706Y16686D01*
G01X28770Y16802D01*
G01X28801Y16860D01*
G01X28832Y16919D01*
G01X28862Y16978D01*
G01X28893Y17036D01*
G01X28922Y17095D01*
G01X28952Y17153D01*
G01X29009Y17271D01*
G01X29037Y17330D01*
G01X29064Y17389D01*
G01X29091Y17449D01*
G01X29118Y17508D01*
G01X29144Y17566D01*
G01X29169Y17625D01*
G01X29195Y17685D01*
G01X29267Y17862D01*
G01X29313Y17979D01*
G01X29357Y18097D01*
G01X29378Y18156D01*
G01X29399Y18214D01*
G01X29438Y18331D01*
G01X29476Y18447D01*
G01X29512Y18563D01*
G01X29528Y18621D01*
G01X29545Y18678D01*
G01X29560Y18735D01*
G01X29576Y18792D01*
G01X29590Y18849D01*
G01X29605Y18906D01*
G01X29631Y19018D01*
G01X29643Y19075D01*
G01X29655Y19130D01*
G01X29666Y19185D01*
G01X29677Y19241D01*
G01X29687Y19296D01*
G01X29696Y19351D01*
G01X29705Y19404D01*
G01X29713Y19459D01*
G01X29720Y19512D01*
G01X29728Y19565D01*
G01X29734Y19619D01*
G01X29739Y19672D01*
G01X29744Y19724D01*
G01X29748Y19776D01*
G01X29752Y19827D01*
G01X29755Y19878D01*
G01X29757Y19929D01*
G01X29759Y19979D01*
G01X29760Y20030D01*
G01X29761Y20079D01*
G01X29761Y20526D01*
G01X29392Y20726D01*
G01X29348Y20750D01*
G01X29301Y20774D01*
G01X29254Y20797D01*
G01X29206Y20821D01*
G01X29156Y20844D01*
G01X29105Y20866D01*
G01X29001Y20912D01*
G01X28947Y20934D01*
G01X28892Y20955D01*
G01X28836Y20977D01*
G01X28779Y20998D01*
G01X28721Y21019D01*
G01X28662Y21040D01*
G01X28603Y21060D01*
G01X28481Y21100D01*
G01X28419Y21119D01*
G01X28293Y21157D01*
G01X28229Y21175D01*
G01X28164Y21193D01*
G01X28099Y21210D01*
G01X27967Y21244D01*
G01X27900Y21260D01*
G01X27764Y21292D01*
G01X27627Y21321D01*
G01X27557Y21335D01*
G01X27488Y21349D01*
G01X27348Y21375D01*
G01X27277Y21387D01*
G01X27207Y21399D01*
G01X27065Y21421D01*
G01X26994Y21431D01*
G01X26922Y21440D01*
G01X26844Y21451D01*
G01X26768Y21460D01*
G01X26696Y21469D01*
G01X26627Y21478D01*
G01X26560Y21486D01*
G01X26495Y21493D01*
G01X26433Y21500D01*
G01X26372Y21506D01*
G01X26314Y21512D01*
G01X26257Y21517D01*
G01X26201Y21522D01*
G01X26147Y21526D01*
G01X26041Y21532D01*
G01X25990Y21535D01*
G01X25888Y21539D01*
G01X25837Y21540D01*
G37*

%LPC*%
G36*
G01X25866Y16892D02*
G01X25685Y17248D01*
G01X25636Y17004D01*
G01X25626Y16967D01*
G01X25611Y16926D01*
G01X25591Y16881D01*
G01X25567Y16834D01*
G01X25538Y16785D01*
G01X25506Y16733D01*
G01X25469Y16681D01*
G01X25430Y16628D01*
G01X25388Y16575D01*
G01X25344Y16523D01*
G01X25297Y16472D01*
G01X25249Y16422D01*
G01X24911Y16084D01*
G01X25160Y15886D01*
G01X25195Y15856D01*
G01X25231Y15822D01*
G01X25268Y15784D01*
G01X25306Y15742D01*
G01X25344Y15698D01*
G01X25382Y15652D01*
G01X25418Y15604D01*
G01X25453Y15556D01*
G01X25485Y15507D01*
G01X25516Y15459D01*
G01X25543Y15412D01*
G01X25566Y15367D01*
G01X25725Y15046D01*
G01X25858Y15326D01*
G01X25878Y15366D01*
G01X25904Y15409D01*
G01X25933Y15454D01*
G01X25965Y15501D01*
G01X26000Y15549D01*
G01X26038Y15597D01*
G01X26078Y15645D01*
G01X26119Y15692D01*
G01X26160Y15738D01*
G01X26202Y15781D01*
G01X26244Y15821D01*
G01X26285Y15858D01*
G01X26580Y16110D01*
G01X26314Y16323D01*
G01X26276Y16355D01*
G01X26237Y16392D01*
G01X26196Y16434D01*
G01X26155Y16479D01*
G01X26113Y16527D01*
G01X26072Y16577D01*
G01X26032Y16630D01*
G01X25994Y16683D01*
G01X25958Y16736D01*
G01X25924Y16790D01*
G01X25893Y16842D01*
G01X25866Y16892D01*
G37*
G36*
G01X28910Y20086D02*
G01X27053Y20086D01*
G01X27053Y19893D01*
G01X27055Y19834D01*
G01X27063Y19788D01*
G01X27079Y19754D01*
G01X27107Y19730D01*
G01X27151Y19714D01*
G01X27212Y19705D01*
G01X27295Y19701D01*
G01X27401Y19700D01*
G01X27749Y19700D01*
G01X27749Y18143D01*
G01X28175Y18191D01*
G01X28197Y18945D01*
G01X28219Y19700D01*
G01X28564Y19700D01*
G01X28670Y19701D01*
G01X28752Y19705D01*
G01X28813Y19714D01*
G01X28856Y19730D01*
G01X28884Y19754D01*
G01X28900Y19788D01*
G01X28908Y19834D01*
G01X28910Y19893D01*
G01X28910Y20086D01*
G37*
G36*
G01X24423Y20086D02*
G01X23415Y20086D01*
G01X23323Y20085D01*
G01X23234Y20084D01*
G01X23149Y20082D01*
G01X23067Y20080D01*
G01X22988Y20078D01*
G01X22915Y20074D01*
G01X22847Y20071D01*
G01X22784Y20067D01*
G01X22727Y20063D01*
G01X22677Y20059D01*
G01X22634Y20055D01*
G01X22598Y20050D01*
G01X22570Y20045D01*
G01X22552Y20040D01*
G01X22541Y20035D01*
G01X22531Y20014D01*
G01X22522Y19973D01*
G01X22512Y19915D01*
G01X22505Y19843D01*
G01X22499Y19759D01*
G01X22494Y19664D01*
G01X22491Y19562D01*
G01X22490Y19455D01*
G01X22490Y18926D01*
G01X23521Y18926D01*
G01X23624Y18925D01*
G01X23712Y18923D01*
G01X23787Y18920D01*
G01X23849Y18916D01*
G01X23900Y18911D01*
G01X23941Y18903D01*
G01X23973Y18894D01*
G01X23996Y18882D01*
G01X24013Y18868D01*
G01X24023Y18851D01*
G01X24028Y18831D01*
G01X24029Y18809D01*
G01X24027Y18782D01*
G01X24023Y18752D01*
G01X24018Y18723D01*
G01X24012Y18697D01*
G01X24003Y18674D01*
G01X23992Y18655D01*
G01X23976Y18638D01*
G01X23955Y18623D01*
G01X23927Y18610D01*
G01X23892Y18600D01*
G01X23849Y18591D01*
G01X23798Y18584D01*
G01X23735Y18577D01*
G01X23662Y18572D01*
G01X23577Y18568D01*
G01X23479Y18564D01*
G01X23366Y18560D01*
G01X23239Y18556D01*
G01X23109Y18552D01*
G01X22995Y18548D01*
G01X22896Y18544D01*
G01X22811Y18540D01*
G01X22738Y18535D01*
G01X22678Y18529D01*
G01X22628Y18522D01*
G01X22588Y18513D01*
G01X22556Y18503D01*
G01X22533Y18491D01*
G01X22516Y18476D01*
G01X22506Y18460D01*
G01X22500Y18440D01*
G01X22499Y18417D01*
G01X22500Y18391D01*
G01X22504Y18363D01*
G01X22509Y18334D01*
G01X22515Y18308D01*
G01X22525Y18285D01*
G01X22538Y18266D01*
G01X22556Y18249D01*
G01X22581Y18235D01*
G01X22615Y18222D01*
G01X22657Y18212D01*
G01X22710Y18204D01*
G01X22774Y18196D01*
G01X22851Y18190D01*
G01X22943Y18185D01*
G01X23050Y18181D01*
G01X23173Y18177D01*
G01X23315Y18174D01*
G01X23476Y18169D01*
G01X24423Y18148D01*
G01X24423Y19313D01*
G01X23560Y19313D01*
G01X23447Y19314D01*
G01X23349Y19314D01*
G01X23265Y19316D01*
G01X23194Y19319D01*
G01X23134Y19323D01*
G01X23086Y19329D01*
G01X23047Y19337D01*
G01X23016Y19348D01*
G01X22993Y19360D01*
G01X22977Y19376D01*
G01X22966Y19395D01*
G01X22959Y19417D01*
G01X22955Y19443D01*
G01X22954Y19473D01*
G01X22954Y19540D01*
G01X22955Y19570D01*
G01X22959Y19595D01*
G01X22966Y19618D01*
G01X22977Y19637D01*
G01X22993Y19652D01*
G01X23016Y19665D01*
G01X23047Y19675D01*
G01X23086Y19683D01*
G01X23134Y19689D01*
G01X23194Y19693D01*
G01X23265Y19697D01*
G01X23349Y19698D01*
G01X23447Y19699D01*
G01X23560Y19700D01*
G01X23930Y19700D01*
G01X24028Y19701D01*
G01X24113Y19703D01*
G01X24184Y19706D01*
G01X24243Y19710D01*
G01X24291Y19716D01*
G01X24331Y19724D01*
G01X24361Y19734D01*
G01X24384Y19747D01*
G01X24401Y19763D01*
G01X24412Y19781D01*
G01X24418Y19804D01*
G01X24422Y19829D01*
G01X24423Y19859D01*
G01X24423Y20086D01*
G37*
G36*
G01X26667Y20086D02*
G01X24810Y20086D01*
G01X24810Y18153D01*
G01X25004Y18153D01*
G01X25064Y18154D01*
G01X25110Y18162D01*
G01X25144Y18180D01*
G01X25168Y18211D01*
G01X25183Y18258D01*
G01X25192Y18326D01*
G01X25196Y18419D01*
G01X25197Y18539D01*
G01X25197Y18926D01*
G01X26280Y18926D01*
G01X26280Y18539D01*
G01X26281Y18419D01*
G01X26285Y18326D01*
G01X26293Y18258D01*
G01X26309Y18211D01*
G01X26333Y18180D01*
G01X26367Y18162D01*
G01X26413Y18154D01*
G01X26473Y18153D01*
G01X26667Y18153D01*
G01X26667Y20086D01*
G37*

%LPD*%
G36*
G01X31690Y14646D02*
G01X31669Y14657D01*
G01X31645Y14656D01*
G01X31617Y14644D01*
G01X31586Y14621D01*
G01X31549Y14583D01*
G01X31506Y14532D01*
G01X31456Y14465D01*
G01X31397Y14383D01*
G01X31330Y14284D01*
G01X31252Y14166D01*
G01X31200Y14087D01*
G01X31154Y14013D01*
G01X31114Y13945D01*
G01X31080Y13885D01*
G01X31051Y13830D01*
G01X31029Y13781D01*
G01X31012Y13739D01*
G01X31001Y13702D01*
G01X30996Y13672D01*
G01X30996Y13648D01*
G01X31003Y13629D01*
G01X31015Y13618D01*
G01X31037Y13611D01*
G01X31064Y13613D01*
G01X31095Y13625D01*
G01X31130Y13645D01*
G01X31167Y13672D01*
G01X31207Y13706D01*
G01X31249Y13746D01*
G01X31293Y13791D01*
G01X31338Y13840D01*
G01X31383Y13894D01*
G01X31427Y13950D01*
G01X31471Y14007D01*
G01X31513Y14067D01*
G01X31554Y14127D01*
G01X31592Y14187D01*
G01X31627Y14246D01*
G01X31658Y14304D01*
G01X31685Y14359D01*
G01X31708Y14411D01*
G01X31725Y14459D01*
G01X31737Y14502D01*
G01X31742Y14540D01*
G01X31741Y14572D01*
G01X31732Y14597D01*
G01X31711Y14626D01*
G01X31690Y14646D01*
G37*

%LPD*%
G36*
G01X19207Y15982D02*
G01X19191Y15987D01*
G01X19150Y15980D01*
G01X19117Y15959D01*
G01X19095Y15928D01*
G01X19086Y15890D01*
G01X19091Y15861D01*
G01X19105Y15814D01*
G01X19126Y15753D01*
G01X19153Y15680D01*
G01X19188Y15597D01*
G01X19226Y15506D01*
G01X19269Y15410D01*
G01X19315Y15311D01*
G01X19372Y15193D01*
G01X19425Y15094D01*
G01X19473Y15014D01*
G01X19516Y14952D01*
G01X19555Y14908D01*
G01X19591Y14880D01*
G01X19625Y14868D01*
G01X19656Y14872D01*
G01X19677Y14882D01*
G01X19692Y14896D01*
G01X19703Y14916D01*
G01X19708Y14940D01*
G01X19708Y14971D01*
G01X19702Y15010D01*
G01X19689Y15057D01*
G01X19671Y15113D01*
G01X19646Y15180D01*
G01X19615Y15258D01*
G01X19577Y15348D01*
G01X19532Y15451D01*
G01X19499Y15523D01*
G01X19465Y15593D01*
G01X19432Y15659D01*
G01X19398Y15721D01*
G01X19366Y15778D01*
G01X19334Y15830D01*
G01X19304Y15875D01*
G01X19276Y15913D01*
G01X19250Y15944D01*
G01X19227Y15968D01*
G01X19207Y15982D01*
G37*

%LPD*%
G36*
G01X32623Y17374D02*
G01X32594Y17379D01*
G01X32577Y17375D01*
G01X32559Y17363D01*
G01X32541Y17342D01*
G01X32524Y17314D01*
G01X32505Y17277D01*
G01X32486Y17233D01*
G01X32468Y17180D01*
G01X32449Y17120D01*
G01X32431Y17052D01*
G01X32412Y16977D01*
G01X32393Y16893D01*
G01X32374Y16802D01*
G01X32352Y16689D01*
G01X32334Y16590D01*
G01X32319Y16505D01*
G01X32309Y16433D01*
G01X32303Y16373D01*
G01X32300Y16324D01*
G01X32302Y16284D01*
G01X32307Y16252D01*
G01X32316Y16228D01*
G01X32329Y16209D01*
G01X32346Y16195D01*
G01X32367Y16185D01*
G01X32395Y16176D01*
G01X32419Y16172D01*
G01X32440Y16174D01*
G01X32460Y16183D01*
G01X32478Y16201D01*
G01X32495Y16229D01*
G01X32512Y16269D01*
G01X32530Y16321D01*
G01X32549Y16387D01*
G01X32569Y16469D01*
G01X32592Y16567D01*
G01X32619Y16683D01*
G01X32643Y16798D01*
G01X32663Y16902D01*
G01X32677Y16995D01*
G01X32688Y17078D01*
G01X32693Y17150D01*
G01X32693Y17212D01*
G01X32689Y17264D01*
G01X32679Y17306D01*
G01X32665Y17338D01*
G01X32646Y17361D01*
G01X32623Y17374D01*
G37*

%LPD*%
G36*
G01X18796Y18907D02*
G01X18780Y18909D01*
G01X18764Y18904D01*
G01X18751Y18890D01*
G01X18739Y18867D01*
G01X18729Y18835D01*
G01X18721Y18794D01*
G01X18714Y18742D01*
G01X18709Y18680D01*
G01X18705Y18606D01*
G01X18702Y18521D01*
G01X18700Y18423D01*
G01X18700Y18194D01*
G01X18702Y18090D01*
G01X18704Y18000D01*
G01X18709Y17924D01*
G01X18715Y17861D01*
G01X18723Y17809D01*
G01X18732Y17768D01*
G01X18745Y17737D01*
G01X18759Y17714D01*
G01X18776Y17699D01*
G01X18796Y17691D01*
G01X18819Y17688D01*
G01X18842Y17691D01*
G01X18862Y17698D01*
G01X18879Y17712D01*
G01X18892Y17733D01*
G01X18903Y17762D01*
G01X18912Y17800D01*
G01X18917Y17849D01*
G01X18921Y17909D01*
G01X18922Y17981D01*
G01X18922Y18067D01*
G01X18920Y18166D01*
G01X18916Y18282D01*
G01X18911Y18375D01*
G01X18906Y18462D01*
G01X18899Y18540D01*
G01X18892Y18612D01*
G01X18884Y18676D01*
G01X18874Y18732D01*
G01X18864Y18781D01*
G01X18852Y18822D01*
G01X18840Y18855D01*
G01X18826Y18880D01*
G01X18812Y18898D01*
G01X18796Y18907D01*
G37*

%LPD*%
G36*
G01X32364Y20315D02*
G01X32340Y20318D01*
G01X32287Y20309D01*
G01X32257Y20278D01*
G01X32248Y20224D01*
G01X32259Y20145D01*
G01X32270Y20100D01*
G01X32282Y20041D01*
G01X32297Y19971D01*
G01X32314Y19891D01*
G01X32333Y19804D01*
G01X32351Y19712D01*
G01X32371Y19618D01*
G01X32389Y19525D01*
G01X32413Y19417D01*
G01X32437Y19324D01*
G01X32461Y19247D01*
G01X32486Y19186D01*
G01X32512Y19139D01*
G01X32539Y19106D01*
G01X32568Y19087D01*
G01X32599Y19081D01*
G01X32632Y19084D01*
G01X32657Y19095D01*
G01X32675Y19114D01*
G01X32686Y19145D01*
G01X32691Y19188D01*
G01X32689Y19245D01*
G01X32681Y19319D01*
G01X32668Y19410D01*
G01X32650Y19521D01*
G01X32631Y19626D01*
G01X32612Y19722D01*
G01X32593Y19812D01*
G01X32574Y19894D01*
G01X32555Y19968D01*
G01X32535Y20035D01*
G01X32514Y20095D01*
G01X32494Y20148D01*
G01X32473Y20193D01*
G01X32452Y20232D01*
G01X32431Y20263D01*
G01X32409Y20287D01*
G01X32386Y20305D01*
G01X32364Y20315D01*
G37*

%LPD*%
G36*
G01X25502Y19692D02*
G01X25421Y19693D01*
G01X25355Y19692D01*
G01X25304Y19687D01*
G01X25265Y19678D01*
G01X25237Y19665D01*
G01X25218Y19646D01*
G01X25206Y19622D01*
G01X25200Y19591D01*
G01X25197Y19554D01*
G01X25197Y19510D01*
G01X25198Y19465D01*
G01X25200Y19428D01*
G01X25207Y19398D01*
G01X25220Y19373D01*
G01X25240Y19354D01*
G01X25270Y19339D01*
G01X25311Y19328D01*
G01X25364Y19321D01*
G01X25433Y19317D01*
G01X25518Y19314D01*
G01X25621Y19313D01*
G01X25864Y19313D01*
G01X25966Y19314D01*
G01X26049Y19317D01*
G01X26117Y19321D01*
G01X26169Y19328D01*
G01X26210Y19337D01*
G01X26239Y19351D01*
G01X26257Y19368D01*
G01X26268Y19390D01*
G01X26272Y19416D01*
G01X26271Y19449D01*
G01X26266Y19487D01*
G01X26259Y19524D01*
G01X26250Y19555D01*
G01X26238Y19581D01*
G01X26220Y19604D01*
G01X26195Y19622D01*
G01X26162Y19637D01*
G01X26120Y19649D01*
G01X26067Y19658D01*
G01X26001Y19667D01*
G01X25923Y19673D01*
G01X25829Y19679D01*
G01X25719Y19684D01*
G01X25601Y19689D01*
G01X25502Y19692D01*
G37*

%LPD*%
G36*
G01X19736Y21665D02*
G01X19707Y21668D01*
G01X19676Y21658D01*
G01X19642Y21634D01*
G01X19605Y21597D01*
G01X19565Y21547D01*
G01X19523Y21483D01*
G01X19479Y21406D01*
G01X19431Y21317D01*
G01X19372Y21201D01*
G01X19321Y21097D01*
G01X19276Y21005D01*
G01X19238Y20923D01*
G01X19206Y20851D01*
G01X19180Y20789D01*
G01X19160Y20735D01*
G01X19146Y20690D01*
G01X19138Y20652D01*
G01X19135Y20622D01*
G01X19137Y20597D01*
G01X19145Y20579D01*
G01X19158Y20566D01*
G01X19175Y20557D01*
G01X19197Y20552D01*
G01X19224Y20551D01*
G01X19248Y20556D01*
G01X19276Y20572D01*
G01X19305Y20596D01*
G01X19337Y20629D01*
G01X19370Y20670D01*
G01X19404Y20717D01*
G01X19439Y20769D01*
G01X19474Y20826D01*
G01X19509Y20887D01*
G01X19543Y20952D01*
G01X19576Y21018D01*
G01X19608Y21085D01*
G01X19638Y21153D01*
G01X19666Y21220D01*
G01X19691Y21286D01*
G01X19714Y21349D01*
G01X19733Y21409D01*
G01X19748Y21465D01*
G01X19759Y21516D01*
G01X19765Y21561D01*
G01X19766Y21600D01*
G01X19762Y21630D01*
G01X19752Y21652D01*
G01X19736Y21665D01*
G37*

%LPD*%
G36*
G01X31033Y22850D02*
G01X30990Y22865D01*
G01X30953Y22864D01*
G01X30921Y22847D01*
G01X30894Y22813D01*
G01X30890Y22795D01*
G01X30893Y22771D01*
G01X30904Y22739D01*
G01X30921Y22701D01*
G01X30944Y22659D01*
G01X30972Y22611D01*
G01X31004Y22560D01*
G01X31041Y22505D01*
G01X31080Y22448D01*
G01X31123Y22390D01*
G01X31213Y22272D01*
G01X31261Y22214D01*
G01X31308Y22157D01*
G01X31355Y22102D01*
G01X31401Y22051D01*
G01X31446Y22003D01*
G01X31489Y21960D01*
G01X31529Y21923D01*
G01X31565Y21891D01*
G01X31598Y21866D01*
G01X31626Y21849D01*
G01X31649Y21841D01*
G01X31666Y21841D01*
G01X31686Y21852D01*
G01X31700Y21869D01*
G01X31707Y21891D01*
G01X31709Y21917D01*
G01X31706Y21949D01*
G01X31696Y21985D01*
G01X31680Y22026D01*
G01X31659Y22071D01*
G01X31632Y22122D01*
G01X31599Y22178D01*
G01X31560Y22238D01*
G01X31516Y22302D01*
G01X31466Y22371D01*
G01X31411Y22445D01*
G01X31350Y22523D01*
G01X31282Y22605D01*
G01X31206Y22695D01*
G01X31140Y22765D01*
G01X31082Y22816D01*
G01X31033Y22850D01*
G37*

%LPD*%
G36*
G01X21618Y23846D02*
G01X21592Y23847D01*
G01X21562Y23841D01*
G01X21527Y23829D01*
G01X21487Y23810D01*
G01X21443Y23785D01*
G01X21395Y23753D01*
G01X21342Y23715D01*
G01X21285Y23671D01*
G01X21223Y23620D01*
G01X21158Y23563D01*
G01X21087Y23499D01*
G01X21021Y23437D01*
G01X20961Y23379D01*
G01X20909Y23325D01*
G01X20864Y23276D01*
G01X20825Y23231D01*
G01X20794Y23191D01*
G01X20769Y23154D01*
G01X20752Y23122D01*
G01X20741Y23095D01*
G01X20737Y23071D01*
G01X20740Y23051D01*
G01X20750Y23036D01*
G01X20767Y23029D01*
G01X20796Y23031D01*
G01X20833Y23043D01*
G01X20878Y23063D01*
G01X20929Y23089D01*
G01X20987Y23123D01*
G01X21048Y23162D01*
G01X21112Y23205D01*
G01X21178Y23253D01*
G01X21245Y23302D01*
G01X21311Y23354D01*
G01X21375Y23406D01*
G01X21436Y23458D01*
G01X21493Y23510D01*
G01X21544Y23559D01*
G01X21589Y23605D01*
G01X21626Y23648D01*
G01X21654Y23686D01*
G01X21672Y23718D01*
G01X21678Y23744D01*
G01X21675Y23778D01*
G01X21668Y23805D01*
G01X21656Y23825D01*
G01X21640Y23839D01*
G01X21618Y23846D01*
G37*

%LPD*%
G36*
G01X28676Y24580D02*
G01X28644Y24583D01*
G01X28619Y24580D01*
G01X28599Y24572D01*
G01X28585Y24558D01*
G01X28574Y24538D01*
G01X28573Y24521D01*
G01X28582Y24499D01*
G01X28600Y24473D01*
G01X28626Y24444D01*
G01X28659Y24412D01*
G01X28698Y24378D01*
G01X28744Y24342D01*
G01X28794Y24305D01*
G01X28848Y24267D01*
G01X28906Y24228D01*
G01X28966Y24190D01*
G01X29027Y24153D01*
G01X29090Y24116D01*
G01X29153Y24081D01*
G01X29215Y24048D01*
G01X29275Y24017D01*
G01X29334Y23989D01*
G01X29389Y23965D01*
G01X29440Y23944D01*
G01X29487Y23929D01*
G01X29528Y23918D01*
G01X29563Y23912D01*
G01X29591Y23912D01*
G01X29611Y23918D01*
G01X29643Y23941D01*
G01X29664Y23964D01*
G01X29674Y23989D01*
G01X29673Y24015D01*
G01X29658Y24044D01*
G01X29631Y24075D01*
G01X29589Y24111D01*
G01X29533Y24151D01*
G01X29462Y24196D01*
G01X29375Y24248D01*
G01X29271Y24305D01*
G01X29150Y24370D01*
G01X29050Y24421D01*
G01X28962Y24465D01*
G01X28886Y24502D01*
G01X28820Y24532D01*
G01X28763Y24555D01*
G01X28716Y24570D01*
G01X28676Y24580D01*
G37*

%LPD*%
G36*
G01X24247Y25040D02*
G01X24195Y25044D01*
G01X24130Y25041D01*
G01X24055Y25032D01*
G01X23969Y25016D01*
G01X23872Y24994D01*
G01X23765Y24967D01*
G01X23634Y24929D01*
G01X23521Y24895D01*
G01X23425Y24865D01*
G01X23346Y24836D01*
G01X23281Y24810D01*
G01X23230Y24784D01*
G01X23192Y24759D01*
G01X23165Y24734D01*
G01X23149Y24708D01*
G01X23143Y24681D01*
G01X23145Y24652D01*
G01X23154Y24621D01*
G01X23169Y24594D01*
G01X23193Y24576D01*
G01X23226Y24567D01*
G01X23272Y24567D01*
G01X23333Y24576D01*
G01X23411Y24595D01*
G01X23509Y24624D01*
G01X23627Y24662D01*
G01X23716Y24690D01*
G01X23803Y24717D01*
G01X23886Y24741D01*
G01X23963Y24762D01*
G01X24030Y24780D01*
G01X24087Y24793D01*
G01X24131Y24801D01*
G01X24160Y24804D01*
G01X24203Y24811D01*
G01X24246Y24829D01*
G01X24284Y24856D01*
G01X24312Y24889D01*
G01X24332Y24929D01*
G01X24340Y24963D01*
G01X24335Y24992D01*
G01X24318Y25014D01*
G01X24288Y25030D01*
G01X24247Y25040D01*
G37*

%LPD*%
G36*
G01X25980Y25240D02*
G01X25856Y25259D01*
G01X25782Y25252D01*
G01X25747Y25212D01*
G01X25738Y25135D01*
G01X25740Y25104D01*
G01X25746Y25076D01*
G01X25757Y25053D01*
G01X25775Y25033D01*
G01X25800Y25015D01*
G01X25834Y25000D01*
G01X25879Y24987D01*
G01X25935Y24975D01*
G01X26004Y24964D01*
G01X26087Y24954D01*
G01X26184Y24945D01*
G01X26299Y24935D01*
G01X26381Y24928D01*
G01X26459Y24924D01*
G01X26533Y24921D01*
G01X26603Y24920D01*
G01X26667Y24920D01*
G01X26726Y24922D01*
G01X26779Y24925D01*
G01X26825Y24930D01*
G01X26864Y24937D01*
G01X26896Y24945D01*
G01X26920Y24954D01*
G01X26936Y24966D01*
G01X26957Y24993D01*
G01X26966Y25021D01*
G01X26963Y25048D01*
G01X26948Y25074D01*
G01X26923Y25098D01*
G01X26887Y25120D01*
G01X26842Y25139D01*
G01X26789Y25157D01*
G01X26727Y25170D01*
G01X26659Y25181D01*
G01X26583Y25188D01*
G01X26502Y25190D01*
G01X26441Y25192D01*
G01X26374Y25195D01*
G01X26304Y25199D01*
G01X26233Y25205D01*
G01X26163Y25212D01*
G01X26096Y25221D01*
G01X26034Y25230D01*
G01X25980Y25240D01*
G37*

%LPD*%
G54D10*
G01X29269Y9462D02*
G01X34349Y9462D01*
G01X34349Y9462D02*
G01X34349Y8700D01*
G01X34349Y8700D02*
G01X34349Y7938D01*
G01X34349Y7938D02*
G01X29269Y7938D01*
G01X29269Y7938D02*
G01X29269Y8700D01*
G01X29269Y8700D02*
G01X29269Y9462D01*
G01X34349Y8700D02*
G01X34603Y8700D01*
G01X29269Y8700D02*
G01X29015Y8700D01*
G54D27*
G01X17318Y52456D02*
G01X19223Y52456D01*
G01X42718Y52456D01*
G01X42718Y47376D01*
G01X19223Y47376D01*
G01X17318Y47376D01*
G01X17318Y52456D01*
G01X19858Y1656D02*
G01X40178Y1656D01*
G01X40178Y6736D01*
G01X19858Y6736D01*
G01X19858Y1656D01*
G01X35849Y46470D02*
G01X35849Y43930D01*
G01X25689Y43930D01*
G01X25689Y46470D01*
G01X27594Y46470D01*
G54D28*
G01X35849Y46470D02*
G01X27594Y46470D01*
G54D10*
G01X11761Y37929D02*
G01X11761Y32849D01*
G01X11761Y32849D02*
G01X10999Y32849D01*
G01X10999Y32849D02*
G01X10237Y32849D01*
G01X10237Y32849D02*
G01X10237Y37929D01*
G01X10237Y37929D02*
G01X10999Y37929D01*
G01X10999Y37929D02*
G01X11761Y37929D01*
G01X10999Y32849D02*
G01X10999Y32595D01*
G01X10999Y37929D02*
G01X10999Y38183D01*
G54D27*
G01X3729Y32300D02*
G01X6269Y32300D01*
G01X6269Y22140D01*
G01X3729Y22140D01*
G01X3729Y24045D01*
G54D28*
G01X3729Y32300D02*
G01X3729Y24045D01*
G54D10*
G01X30039Y41699D02*
G01X27499Y41699D01*
G01X27499Y28999D01*
G01X27499Y28999D01*
G01X27499Y28999D02*
G01X27499Y26459D01*
G01X30039Y26459D01*
G01X30039Y41699D02*
G01X30039Y26459D01*
G01X27499Y28999D02*
G01X30039Y28999D01*
G01X27499Y31539D02*
G01X30039Y31539D01*
G01X27499Y34079D02*
G01X30039Y34079D01*
G01X27499Y36619D02*
G01X30039Y36619D01*
G01X27499Y39159D02*
G01X30039Y39159D01*
G01X27499Y41699D02*
G01X38929Y41699D01*
G01X38929Y26459D01*
G01X27499Y26459D01*
G01X27499Y41699D01*
G01X17750Y25699D02*
G01X37749Y25699D01*
G01X37749Y10599D01*
G01X17750Y10599D01*
G01X17750Y25699D01*
G01X12649Y23149D02*
G01X12649Y13150D01*
G01X17749Y25700D02*
G01X12649Y23149D01*
G01X17749Y10600D02*
G01X12649Y13150D01*
G01X8020Y37881D02*
G01X5472Y37886D01*
G01X5098Y20701D02*
G01X5098Y14802D01*
G01X10896Y14802D01*
G01X10896Y20701D01*
G01X5098Y20701D01*
G01X19269Y28212D02*
G01X24349Y28212D01*
G01X24349Y28212D02*
G01X24349Y27450D01*
G01X24349Y27450D02*
G01X24349Y26688D01*
G01X24349Y26688D02*
G01X19269Y26688D01*
G01X19269Y26688D02*
G01X19269Y27450D01*
G01X19269Y27450D02*
G01X19269Y28212D01*
G01X24349Y27450D02*
G01X24603Y27450D01*
G01X19269Y27450D02*
G01X19015Y27450D01*
G01X19269Y30961D02*
G01X24349Y30961D01*
G01X24349Y30961D02*
G01X24349Y30199D01*
G01X24349Y30199D02*
G01X24349Y29437D01*
G01X24349Y29437D02*
G01X19269Y29437D01*
G01X19269Y29437D02*
G01X19269Y30199D01*
G01X19269Y30199D02*
G01X19269Y30961D01*
G01X24349Y30199D02*
G01X24603Y30199D01*
G01X19269Y30199D02*
G01X19015Y30199D01*
G01X9750Y24470D02*
G01X9750Y28429D01*
G01X22540Y7936D02*
G01X17460Y7936D01*
G01X17460Y7936D02*
G01X17460Y8698D01*
G01X17460Y8698D02*
G01X17460Y9460D01*
G01X17460Y9460D02*
G01X22540Y9460D01*
G01X22540Y9460D02*
G01X22540Y8698D01*
G01X22540Y8698D02*
G01X22540Y7936D01*
G01X17460Y8698D02*
G01X17206Y8698D01*
G01X22540Y8698D02*
G01X22794Y8698D01*
G01X43039Y39699D02*
G01X40499Y39699D01*
G01X40499Y14299D01*
G01X43039Y14299D01*
G01X43039Y39699D01*
G01X43039Y37159D02*
G01X40499Y37159D01*
G01X43039Y34619D02*
G01X40499Y34619D01*
G01X43039Y32079D02*
G01X40499Y32079D01*
G01X43039Y29539D02*
G01X40499Y29539D01*
G01X43039Y26999D02*
G01X40499Y26999D01*
G01X43039Y24459D02*
G01X40499Y24459D01*
G01X43039Y21919D02*
G01X40499Y21919D01*
G01X43039Y19379D02*
G01X40499Y19379D01*
G01X43039Y16839D02*
G01X40499Y16839D01*
G01X40499Y39699D02*
G01X55739Y39699D01*
G01X55739Y14299D01*
G01X40499Y14299D01*
G01X40499Y39699D01*
G01X15932Y39478D02*
G01X16948Y39478D01*
G01X16439Y40113D02*
G01X16439Y38843D01*
G54D29*
G01X23749Y44200D02*
G01X25251Y42698D01*
G01X26749Y42698D01*
G01X27250Y43199D01*
G01X27250Y42698D01*
G01X27250Y43199D02*
G01X26750Y43199D01*
G01X23749Y44200D02*
G01X24999Y44200D01*
G01X25000Y44199D02*
G01X16749Y44199D01*
G54D11*
G01X44499Y24700D02*
G01X45748Y20448D01*
G01X47001Y24700D01*
G01X47999Y23450D02*
G01X47999Y24200D01*
G01X48499Y24700D01*
G01X49749Y24700D01*
G01X50249Y24200D01*
G01X50249Y22700D01*
G01X47999Y20450D01*
G01X50249Y20450D01*
G01X51999Y20950D02*
G01X51999Y24200D01*
G01X52499Y24700D01*
G01X53749Y24700D01*
G01X54249Y24200D01*
G01X54249Y20949D01*
G01X53749Y20450D01*
G01X52499Y20450D01*
G01X51999Y20950D01*
G01X51249Y20450D02*
G01X50999Y20450D01*
G54D31*
G01X31249Y9200D02*
G01X31249Y8244D01*
G01X31249Y9200D02*
G01X31658Y9200D01*
G01X31793Y9154D01*
G01X31839Y9108D01*
G01X31884Y9017D01*
G01X31884Y8928D01*
G01X31839Y8836D01*
G01X31793Y8791D01*
G01X31658Y8745D01*
G01X31249Y8745D01*
G01X31567Y8745D02*
G01X31884Y8244D01*
G01X32730Y9200D02*
G01X32276Y9200D01*
G01X32230Y8791D01*
G01X32276Y8836D01*
G01X32413Y8882D01*
G01X32547Y8882D01*
G01X32685Y8836D01*
G01X32776Y8745D01*
G01X32822Y8608D01*
G01X32822Y8519D01*
G01X32776Y8382D01*
G01X32685Y8290D01*
G01X32547Y8244D01*
G01X32413Y8244D01*
G01X32276Y8290D01*
G01X32230Y8336D01*
G01X32184Y8427D01*
G01X44020Y52200D02*
G01X44020Y51369D01*
G01X43967Y51214D01*
G01X43916Y51161D01*
G01X43812Y51110D01*
G01X43708Y51110D01*
G01X43604Y51161D01*
G01X43550Y51214D01*
G01X43500Y51369D01*
G01X43500Y51473D01*
G01X44363Y51994D02*
G01X44465Y52045D01*
G01X44622Y52200D01*
G01X44622Y51110D01*
G01X41520Y6200D02*
G01X41520Y5369D01*
G01X41467Y5214D01*
G01X41416Y5161D01*
G01X41312Y5110D01*
G01X41208Y5110D01*
G01X41104Y5161D01*
G01X41050Y5214D01*
G01X41000Y5369D01*
G01X41000Y5473D01*
G01X41914Y5940D02*
G01X41914Y5994D01*
G01X41965Y6098D01*
G01X42018Y6149D01*
G01X42122Y6200D01*
G01X42331Y6200D01*
G01X42435Y6149D01*
G01X42485Y6098D01*
G01X42536Y5994D01*
G01X42536Y5890D01*
G01X42485Y5785D01*
G01X42381Y5628D01*
G01X41863Y5110D01*
G01X42590Y5110D01*
G01X37226Y45545D02*
G01X37122Y45649D01*
G01X36967Y45700D01*
G01X36759Y45700D01*
G01X36604Y45649D01*
G01X36499Y45545D01*
G01X36499Y45440D01*
G01X36550Y45336D01*
G01X36604Y45285D01*
G01X36708Y45232D01*
G01X37020Y45128D01*
G01X37122Y45077D01*
G01X37175Y45026D01*
G01X37226Y44922D01*
G01X37226Y44765D01*
G01X37122Y44661D01*
G01X36967Y44610D01*
G01X36759Y44610D01*
G01X36604Y44661D01*
G01X36499Y44765D01*
G01X37569Y45700D02*
G01X37569Y44610D01*
G01X37569Y45700D02*
G01X38036Y45700D01*
G01X38194Y45649D01*
G01X38244Y45598D01*
G01X38298Y45494D01*
G01X38298Y45336D01*
G01X38244Y45232D01*
G01X38194Y45181D01*
G01X38036Y45128D01*
G01X37569Y45128D01*
G01X39367Y45545D02*
G01X39263Y45649D01*
G01X39108Y45700D01*
G01X38900Y45700D01*
G01X38745Y45649D01*
G01X38641Y45545D01*
G01X38641Y45440D01*
G01X38691Y45336D01*
G01X38745Y45285D01*
G01X38849Y45232D01*
G01X39159Y45128D01*
G01X39263Y45077D01*
G01X39316Y45026D01*
G01X39367Y44922D01*
G01X39367Y44765D01*
G01X39263Y44661D01*
G01X39108Y44610D01*
G01X38900Y44610D01*
G01X38745Y44661D01*
G01X38641Y44765D01*
G01X39814Y45700D02*
G01X40386Y45700D01*
G01X40073Y45285D01*
G01X40231Y45285D01*
G01X40335Y45232D01*
G01X40386Y45181D01*
G01X40436Y45026D01*
G01X40436Y44922D01*
G01X40386Y44765D01*
G01X40281Y44661D01*
G01X40127Y44610D01*
G01X39969Y44610D01*
G01X39814Y44661D01*
G01X39763Y44714D01*
G01X39710Y44818D01*
G01X41092Y45700D02*
G01X40937Y45649D01*
G01X40833Y45494D01*
G01X40779Y45232D01*
G01X40779Y45077D01*
G01X40833Y44818D01*
G01X40937Y44661D01*
G01X41092Y44610D01*
G01X41196Y44610D01*
G01X41351Y44661D01*
G01X41455Y44818D01*
G01X41508Y45077D01*
G01X41508Y45232D01*
G01X41455Y45494D01*
G01X41351Y45649D01*
G01X41196Y45700D01*
G01X41092Y45700D01*
G01X44499Y13149D02*
G01X44499Y12057D01*
G01X44499Y13149D02*
G01X44967Y13149D01*
G01X45124Y13098D01*
G01X45175Y13045D01*
G01X45228Y12940D01*
G01X45228Y12786D01*
G01X45175Y12681D01*
G01X45124Y12628D01*
G01X44967Y12577D01*
G01X44499Y12577D01*
G01X45571Y13149D02*
G01X45571Y12057D01*
G01X45571Y12577D02*
G01X45726Y12732D01*
G01X45830Y12786D01*
G01X45985Y12786D01*
G01X46090Y12732D01*
G01X46143Y12577D01*
G01X46143Y12057D01*
G01X46745Y12786D02*
G01X46641Y12732D01*
G01X46537Y12628D01*
G01X46486Y12473D01*
G01X46486Y12369D01*
G01X46537Y12214D01*
G01X46641Y12110D01*
G01X46745Y12057D01*
G01X46900Y12057D01*
G01X47004Y12110D01*
G01X47108Y12214D01*
G01X47159Y12369D01*
G01X47159Y12473D01*
G01X47108Y12628D01*
G01X47004Y12732D01*
G01X46900Y12786D01*
G01X46745Y12786D01*
G01X47659Y13149D02*
G01X47659Y12265D01*
G01X47710Y12110D01*
G01X47814Y12057D01*
G01X47918Y12057D01*
G01X47502Y12786D02*
G01X47868Y12786D01*
G01X48520Y12786D02*
G01X48416Y12732D01*
G01X48315Y12628D01*
G01X48261Y12473D01*
G01X48261Y12369D01*
G01X48315Y12214D01*
G01X48416Y12110D01*
G01X48520Y12057D01*
G01X48678Y12057D01*
G01X48782Y12110D01*
G01X48886Y12214D01*
G01X48937Y12369D01*
G01X48937Y12473D01*
G01X48886Y12628D01*
G01X48782Y12732D01*
G01X48678Y12786D01*
G01X48520Y12786D01*
G01X49280Y12786D02*
G01X49280Y12057D01*
G01X49280Y12473D02*
G01X49331Y12628D01*
G01X49435Y12732D01*
G01X49539Y12786D01*
G01X49696Y12786D01*
G01X50039Y12473D02*
G01X50662Y12473D01*
G01X50662Y12577D01*
G01X50611Y12681D01*
G01X50557Y12732D01*
G01X50453Y12786D01*
G01X50298Y12786D01*
G01X50194Y12732D01*
G01X50090Y12628D01*
G01X50039Y12473D01*
G01X50039Y12369D01*
G01X50090Y12214D01*
G01X50194Y12110D01*
G01X50298Y12057D01*
G01X50453Y12057D01*
G01X50557Y12110D01*
G01X50662Y12214D01*
G01X51576Y12628D02*
G01X51525Y12732D01*
G01X51368Y12786D01*
G01X51213Y12786D01*
G01X51058Y12732D01*
G01X51004Y12628D01*
G01X51058Y12526D01*
G01X51159Y12473D01*
G01X51421Y12422D01*
G01X51525Y12369D01*
G01X51576Y12265D01*
G01X51576Y12214D01*
G01X51525Y12110D01*
G01X51368Y12057D01*
G01X51213Y12057D01*
G01X51058Y12110D01*
G01X51004Y12214D01*
G01X51919Y13149D02*
G01X51972Y13098D01*
G01X52023Y13149D01*
G01X51972Y13200D01*
G01X51919Y13149D01*
G01X51972Y12786D02*
G01X51972Y12057D01*
G01X52937Y12628D02*
G01X52887Y12732D01*
G01X52729Y12786D01*
G01X52574Y12786D01*
G01X52417Y12732D01*
G01X52366Y12628D01*
G01X52417Y12526D01*
G01X52521Y12473D01*
G01X52782Y12422D01*
G01X52887Y12369D01*
G01X52937Y12265D01*
G01X52937Y12214D01*
G01X52887Y12110D01*
G01X52729Y12057D01*
G01X52574Y12057D01*
G01X52417Y12110D01*
G01X52366Y12214D01*
G01X53435Y13149D02*
G01X53435Y12265D01*
G01X53489Y12110D01*
G01X53593Y12057D01*
G01X53697Y12057D01*
G01X53280Y12786D02*
G01X53643Y12786D01*
G01X54299Y12786D02*
G01X54195Y12732D01*
G01X54091Y12628D01*
G01X54040Y12473D01*
G01X54040Y12369D01*
G01X54091Y12214D01*
G01X54195Y12110D01*
G01X54299Y12057D01*
G01X54454Y12057D01*
G01X54558Y12110D01*
G01X54662Y12214D01*
G01X54715Y12369D01*
G01X54715Y12473D01*
G01X54662Y12628D01*
G01X54558Y12732D01*
G01X54454Y12786D01*
G01X54299Y12786D01*
G01X55058Y12786D02*
G01X55058Y12057D01*
G01X55058Y12473D02*
G01X55109Y12628D01*
G01X55213Y12732D01*
G01X55317Y12786D01*
G01X55472Y12786D01*
G01X10499Y34627D02*
G01X11452Y34627D01*
G01X10499Y34627D02*
G01X10499Y35036D01*
G01X10543Y35173D01*
G01X10588Y35219D01*
G01X10680Y35262D01*
G01X10771Y35262D01*
G01X10863Y35219D01*
G01X10908Y35173D01*
G01X10954Y35036D01*
G01X10954Y34627D01*
G01X10954Y34945D02*
G01X11452Y35262D01*
G01X10499Y35653D02*
G01X10499Y36154D01*
G01X10863Y35882D01*
G01X10863Y36017D01*
G01X10908Y36108D01*
G01X10954Y36154D01*
G01X11089Y36199D01*
G01X11180Y36199D01*
G01X11317Y36154D01*
G01X11406Y36062D01*
G01X11452Y35928D01*
G01X11452Y35791D01*
G01X11406Y35653D01*
G01X11363Y35608D01*
G01X11272Y35564D01*
G01X2260Y26309D02*
G01X2156Y26258D01*
G01X2051Y26154D01*
G01X2001Y26050D01*
G01X2001Y25842D01*
G01X2051Y25738D01*
G01X2156Y25634D01*
G01X2260Y25583D01*
G01X2415Y25529D01*
G01X2676Y25529D01*
G01X2831Y25583D01*
G01X2935Y25634D01*
G01X3039Y25738D01*
G01X3090Y25842D01*
G01X3090Y26050D01*
G01X3039Y26154D01*
G01X2935Y26258D01*
G01X2831Y26309D01*
G01X2676Y26309D01*
G01X2676Y26050D02*
G01X2676Y26309D01*
G01X2001Y26652D02*
G01X3090Y26652D01*
G01X2001Y26652D02*
G01X2001Y27119D01*
G01X2051Y27277D01*
G01X2105Y27328D01*
G01X2206Y27379D01*
G01X2364Y27379D01*
G01X2468Y27328D01*
G01X2519Y27277D01*
G01X2572Y27119D01*
G01X2572Y26652D01*
G01X2156Y28450D02*
G01X2051Y28346D01*
G01X2001Y28191D01*
G01X2001Y27983D01*
G01X2051Y27826D01*
G01X2156Y27721D01*
G01X2260Y27721D01*
G01X2364Y27775D01*
G01X2415Y27826D01*
G01X2468Y27930D01*
G01X2572Y28242D01*
G01X2623Y28346D01*
G01X2676Y28397D01*
G01X2778Y28450D01*
G01X2935Y28450D01*
G01X3039Y28346D01*
G01X3090Y28191D01*
G01X3090Y27983D01*
G01X3039Y27826D01*
G01X2935Y27721D01*
G01X29999Y43450D02*
G01X29999Y42357D01*
G01X29999Y43450D02*
G01X30467Y43450D01*
G01X30624Y43396D01*
G01X30675Y43345D01*
G01X30728Y43241D01*
G01X30728Y43137D01*
G01X30675Y43033D01*
G01X30624Y42980D01*
G01X30467Y42929D01*
G01X29999Y42929D02*
G01X30467Y42929D01*
G01X30624Y42878D01*
G01X30675Y42825D01*
G01X30728Y42721D01*
G01X30728Y42566D01*
G01X30675Y42461D01*
G01X30624Y42408D01*
G01X30467Y42357D01*
G01X29999Y42357D01*
G01X31071Y43450D02*
G01X31071Y42357D01*
G01X31071Y43450D02*
G01X31485Y42357D01*
G01X31902Y43450D02*
G01X31485Y42357D01*
G01X31902Y43450D02*
G01X31902Y42357D01*
G01X32245Y43450D02*
G01X32245Y42357D01*
G01X32245Y43450D02*
G01X32712Y43450D01*
G01X32867Y43396D01*
G01X32920Y43345D01*
G01X32971Y43241D01*
G01X32971Y43084D01*
G01X32920Y42980D01*
G01X32867Y42929D01*
G01X32712Y42878D01*
G01X32245Y42878D01*
G01X33368Y43188D02*
G01X33368Y43241D01*
G01X33418Y43345D01*
G01X33472Y43396D01*
G01X33573Y43450D01*
G01X33782Y43450D01*
G01X33886Y43396D01*
G01X33939Y43345D01*
G01X33990Y43241D01*
G01X33990Y43137D01*
G01X33939Y43033D01*
G01X33835Y42878D01*
G01X33314Y42357D01*
G01X34043Y42357D01*
G01X34645Y43450D02*
G01X34488Y43396D01*
G01X34437Y43292D01*
G01X34437Y43188D01*
G01X34488Y43084D01*
G01X34592Y43033D01*
G01X34800Y42980D01*
G01X34958Y42929D01*
G01X35059Y42825D01*
G01X35113Y42721D01*
G01X35113Y42566D01*
G01X35059Y42461D01*
G01X35008Y42408D01*
G01X34853Y42357D01*
G01X34645Y42357D01*
G01X34488Y42408D01*
G01X34437Y42461D01*
G01X34386Y42566D01*
G01X34386Y42721D01*
G01X34437Y42825D01*
G01X34541Y42929D01*
G01X34696Y42980D01*
G01X34904Y43033D01*
G01X35008Y43084D01*
G01X35059Y43188D01*
G01X35059Y43292D01*
G01X35008Y43396D01*
G01X34853Y43450D01*
G01X34645Y43450D01*
G01X35768Y43450D02*
G01X35610Y43396D01*
G01X35506Y43241D01*
G01X35455Y42980D01*
G01X35455Y42825D01*
G01X35506Y42566D01*
G01X35610Y42408D01*
G01X35768Y42357D01*
G01X35872Y42357D01*
G01X36027Y42408D01*
G01X36131Y42566D01*
G01X36182Y42825D01*
G01X36182Y42980D01*
G01X36131Y43241D01*
G01X36027Y43396D01*
G01X35872Y43450D01*
G01X35768Y43450D01*
G01X31748Y24700D02*
G01X31748Y23610D01*
G01X31748Y24700D02*
G01X32114Y24700D01*
G01X32269Y24649D01*
G01X32373Y24545D01*
G01X32424Y24441D01*
G01X32477Y24286D01*
G01X32477Y24024D01*
G01X32424Y23869D01*
G01X32373Y23765D01*
G01X32269Y23661D01*
G01X32114Y23610D01*
G01X31748Y23610D01*
G01X32820Y24700D02*
G01X32820Y23610D01*
G01X33547Y24700D02*
G01X33547Y23610D01*
G01X32820Y24182D02*
G01X33547Y24182D01*
G01X34253Y24700D02*
G01X34253Y23610D01*
G01X33889Y24700D02*
G01X34616Y24700D01*
G01X35012Y24441D02*
G01X35012Y24492D01*
G01X35063Y24596D01*
G01X35116Y24649D01*
G01X35220Y24700D01*
G01X35429Y24700D01*
G01X35530Y24649D01*
G01X35584Y24596D01*
G01X35634Y24492D01*
G01X35634Y24390D01*
G01X35584Y24286D01*
G01X35479Y24128D01*
G01X34959Y23610D01*
G01X35688Y23610D01*
G01X36081Y24441D02*
G01X36081Y24492D01*
G01X36135Y24596D01*
G01X36186Y24649D01*
G01X36290Y24700D01*
G01X36498Y24700D01*
G01X36602Y24649D01*
G01X36653Y24596D01*
G01X36706Y24492D01*
G01X36706Y24390D01*
G01X36653Y24286D01*
G01X36549Y24128D01*
G01X36031Y23610D01*
G01X36757Y23610D01*
G01X5499Y40199D02*
G01X5499Y39107D01*
G01X5499Y39107D02*
G01X6122Y39107D01*
G01X6465Y40199D02*
G01X6465Y39107D01*
G01X6465Y40199D02*
G01X7140Y40199D01*
G01X6465Y39679D02*
G01X6881Y39679D01*
G01X6465Y39107D02*
G01X7140Y39107D01*
G01X7483Y40199D02*
G01X7483Y39107D01*
G01X7483Y40199D02*
G01X7846Y40199D01*
G01X8004Y40146D01*
G01X8108Y40042D01*
G01X8159Y39938D01*
G01X8212Y39783D01*
G01X8212Y39524D01*
G01X8159Y39366D01*
G01X8108Y39262D01*
G01X8004Y39158D01*
G01X7846Y39107D01*
G01X7483Y39107D01*
G01X5999Y13949D02*
G01X5999Y12857D01*
G01X5999Y13949D02*
G01X6469Y13949D01*
G01X6624Y13896D01*
G01X6675Y13845D01*
G01X6728Y13741D01*
G01X6728Y13637D01*
G01X6675Y13533D01*
G01X6624Y13482D01*
G01X6469Y13429D01*
G01X5999Y13429D01*
G01X6365Y13429D02*
G01X6728Y12857D01*
G01X7071Y13274D02*
G01X7694Y13274D01*
G01X7694Y13378D01*
G01X7643Y13482D01*
G01X7590Y13533D01*
G01X7485Y13586D01*
G01X7330Y13586D01*
G01X7226Y13533D01*
G01X7122Y13429D01*
G01X7071Y13274D01*
G01X7071Y13170D01*
G01X7122Y13015D01*
G01X7226Y12911D01*
G01X7330Y12857D01*
G01X7485Y12857D01*
G01X7590Y12911D01*
G01X7694Y13015D01*
G01X8608Y13429D02*
G01X8557Y13533D01*
G01X8400Y13586D01*
G01X8245Y13586D01*
G01X8090Y13533D01*
G01X8037Y13429D01*
G01X8090Y13325D01*
G01X8194Y13274D01*
G01X8453Y13221D01*
G01X8557Y13170D01*
G01X8608Y13066D01*
G01X8608Y13015D01*
G01X8557Y12911D01*
G01X8400Y12857D01*
G01X8245Y12857D01*
G01X8090Y12911D01*
G01X8037Y13015D01*
G01X8951Y13274D02*
G01X9576Y13274D01*
G01X9576Y13378D01*
G01X9522Y13482D01*
G01X9472Y13533D01*
G01X9368Y13586D01*
G01X9213Y13586D01*
G01X9108Y13533D01*
G01X9004Y13429D01*
G01X8951Y13274D01*
G01X8951Y13170D01*
G01X9004Y13015D01*
G01X9108Y12911D01*
G01X9213Y12857D01*
G01X9368Y12857D01*
G01X9472Y12911D01*
G01X9576Y13015D01*
G01X10074Y13949D02*
G01X10074Y13066D01*
G01X10127Y12911D01*
G01X10229Y12857D01*
G01X10333Y12857D01*
G01X9919Y13586D02*
G01X10282Y13586D01*
G01X21250Y27950D02*
G01X21250Y26997D01*
G01X21250Y27950D02*
G01X21658Y27950D01*
G01X21796Y27906D01*
G01X21841Y27861D01*
G01X21887Y27769D01*
G01X21887Y27678D01*
G01X21841Y27586D01*
G01X21796Y27541D01*
G01X21658Y27495D01*
G01X21250Y27495D01*
G01X21567Y27495D02*
G01X21887Y26997D01*
G01X22233Y27723D02*
G01X22233Y27769D01*
G01X22278Y27861D01*
G01X22324Y27906D01*
G01X22413Y27950D01*
G01X22596Y27950D01*
G01X22687Y27906D01*
G01X22733Y27861D01*
G01X22779Y27769D01*
G01X22779Y27678D01*
G01X22733Y27586D01*
G01X22641Y27452D01*
G01X22187Y26997D01*
G01X22822Y26997D01*
G01X21249Y30700D02*
G01X21249Y29744D01*
G01X21249Y30700D02*
G01X21658Y30700D01*
G01X21796Y30654D01*
G01X21841Y30608D01*
G01X21887Y30517D01*
G01X21887Y30428D01*
G01X21841Y30336D01*
G01X21796Y30291D01*
G01X21658Y30245D01*
G01X21249Y30245D01*
G01X21567Y30245D02*
G01X21887Y29744D01*
G01X22187Y30517D02*
G01X22278Y30562D01*
G01X22413Y30700D01*
G01X22413Y29744D01*
G01X8061Y26950D02*
G01X7957Y26899D01*
G01X7852Y26795D01*
G01X7799Y26691D01*
G01X7748Y26536D01*
G01X7748Y26277D01*
G01X7799Y26120D01*
G01X7852Y26016D01*
G01X7957Y25911D01*
G01X8061Y25861D01*
G01X8269Y25861D01*
G01X8371Y25911D01*
G01X8475Y26016D01*
G01X8528Y26120D01*
G01X8579Y26277D01*
G01X8579Y26536D01*
G01X8528Y26691D01*
G01X8475Y26795D01*
G01X8371Y26899D01*
G01X8269Y26950D01*
G01X8061Y26950D01*
G01X8216Y26069D02*
G01X8528Y25756D01*
G01X8922Y26745D02*
G01X9026Y26795D01*
G01X9183Y26950D01*
G01X9183Y25861D01*
G01X19249Y9200D02*
G01X19249Y8244D01*
G01X19249Y9200D02*
G01X19658Y9200D01*
G01X19796Y9154D01*
G01X19841Y9108D01*
G01X19887Y9017D01*
G01X19887Y8928D01*
G01X19841Y8836D01*
G01X19796Y8791D01*
G01X19658Y8745D01*
G01X19249Y8745D01*
G01X19567Y8745D02*
G01X19887Y8244D01*
G01X20733Y9062D02*
G01X20687Y9154D01*
G01X20550Y9200D01*
G01X20459Y9200D01*
G01X20324Y9154D01*
G01X20232Y9017D01*
G01X20187Y8791D01*
G01X20187Y8565D01*
G01X20232Y8382D01*
G01X20324Y8290D01*
G01X20459Y8244D01*
G01X20504Y8244D01*
G01X20641Y8290D01*
G01X20733Y8382D01*
G01X20776Y8519D01*
G01X20776Y8565D01*
G01X20733Y8699D01*
G01X20641Y8791D01*
G01X20504Y8836D01*
G01X20459Y8836D01*
G01X20324Y8791D01*
G01X20232Y8699D01*
G01X20187Y8565D01*
G01X46751Y41554D02*
G01X46751Y40464D01*
G01X46751Y41554D02*
G01X47166Y40464D01*
G01X47582Y41554D02*
G01X47166Y40464D01*
G01X47582Y41554D02*
G01X47582Y40464D01*
G01X47925Y41554D02*
G01X47925Y40464D01*
G01X47925Y41554D02*
G01X48392Y41554D01*
G01X48547Y41503D01*
G01X48601Y41450D01*
G01X48651Y41346D01*
G01X48651Y41191D01*
G01X48601Y41087D01*
G01X48547Y41036D01*
G01X48392Y40983D01*
G01X47925Y40983D01*
G01X48994Y41554D02*
G01X48994Y40774D01*
G01X49048Y40619D01*
G01X49152Y40515D01*
G01X49307Y40464D01*
G01X49411Y40464D01*
G01X49566Y40515D01*
G01X49670Y40619D01*
G01X49723Y40774D01*
G01X49723Y41554D01*
G01X50739Y41191D02*
G01X50688Y41036D01*
G01X50584Y40932D01*
G01X50429Y40878D01*
G01X50376Y40878D01*
G01X50221Y40932D01*
G01X50117Y41036D01*
G01X50066Y41191D01*
G01X50066Y41242D01*
G01X50117Y41399D01*
G01X50221Y41503D01*
G01X50376Y41554D01*
G01X50429Y41554D01*
G01X50584Y41503D01*
G01X50688Y41399D01*
G01X50739Y41191D01*
G01X50739Y40932D01*
G01X50688Y40670D01*
G01X50584Y40515D01*
G01X50429Y40464D01*
G01X50325Y40464D01*
G01X50168Y40515D01*
G01X50117Y40619D01*
G01X51136Y41295D02*
G01X51136Y41346D01*
G01X51186Y41450D01*
G01X51240Y41503D01*
G01X51344Y41554D01*
G01X51552Y41554D01*
G01X51654Y41503D01*
G01X51707Y41450D01*
G01X51758Y41346D01*
G01X51758Y41242D01*
G01X51707Y41140D01*
G01X51603Y40983D01*
G01X51082Y40464D01*
G01X51811Y40464D01*
G01X52776Y41554D02*
G01X52258Y41554D01*
G01X52205Y41087D01*
G01X52258Y41140D01*
G01X52413Y41191D01*
G01X52568Y41191D01*
G01X52726Y41140D01*
G01X52830Y41036D01*
G01X52881Y40878D01*
G01X52881Y40774D01*
G01X52830Y40619D01*
G01X52726Y40515D01*
G01X52568Y40464D01*
G01X52413Y40464D01*
G01X52258Y40515D01*
G01X52205Y40569D01*
G01X52154Y40670D01*
G01X53536Y41554D02*
G01X53381Y41503D01*
G01X53277Y41346D01*
G01X53223Y41087D01*
G01X53223Y40932D01*
G01X53277Y40670D01*
G01X53381Y40515D01*
G01X53536Y40464D01*
G01X53640Y40464D01*
G01X53795Y40515D01*
G01X53899Y40670D01*
G01X53952Y40932D01*
G01X53952Y41087D01*
G01X53899Y41346D01*
G01X53795Y41503D01*
G01X53640Y41554D01*
G01X53536Y41554D01*
G54D27*
G01X45117Y30637D02*
G01X45003Y30751D01*
G01X44830Y30809D01*
G01X44599Y30809D01*
G01X44424Y30751D01*
G01X44309Y30637D01*
G01X44309Y30520D01*
G01X44368Y30406D01*
G01X44424Y30347D01*
G01X44541Y30289D01*
G01X44886Y30174D01*
G01X45003Y30116D01*
G01X45059Y30058D01*
G01X45117Y29943D01*
G01X45117Y29771D01*
G01X45003Y29654D01*
G01X44830Y29595D01*
G01X44599Y29595D01*
G01X44424Y29654D01*
G01X44309Y29771D01*
G01X45498Y30809D02*
G01X45498Y29595D01*
G01X45498Y30809D02*
G01X45902Y30809D01*
G01X46075Y30751D01*
G01X46192Y30637D01*
G01X46250Y30520D01*
G01X46306Y30347D01*
G01X46306Y30058D01*
G01X46250Y29885D01*
G01X46192Y29771D01*
G01X46075Y29654D01*
G01X45902Y29595D01*
G01X45498Y29595D01*
G01X47149Y30809D02*
G01X46687Y29595D01*
G01X47149Y30809D02*
G01X47611Y29595D01*
G01X46862Y30002D02*
G01X47439Y30002D01*
G01X45117Y33177D02*
G01X45003Y33291D01*
G01X44830Y33349D01*
G01X44599Y33349D01*
G01X44424Y33291D01*
G01X44309Y33177D01*
G01X44309Y33060D01*
G01X44368Y32946D01*
G01X44424Y32887D01*
G01X44541Y32829D01*
G01X44886Y32714D01*
G01X45003Y32656D01*
G01X45059Y32598D01*
G01X45117Y32483D01*
G01X45117Y32311D01*
G01X45003Y32194D01*
G01X44830Y32135D01*
G01X44599Y32135D01*
G01X44424Y32194D01*
G01X44309Y32311D01*
G01X46364Y33060D02*
G01X46306Y33177D01*
G01X46192Y33291D01*
G01X46075Y33349D01*
G01X45846Y33349D01*
G01X45729Y33291D01*
G01X45615Y33177D01*
G01X45557Y33060D01*
G01X45498Y32887D01*
G01X45498Y32598D01*
G01X45557Y32425D01*
G01X45615Y32311D01*
G01X45729Y32194D01*
G01X45846Y32135D01*
G01X46075Y32135D01*
G01X46192Y32194D01*
G01X46306Y32311D01*
G01X46364Y32425D01*
G01X46745Y33349D02*
G01X46745Y32135D01*
G01X46745Y32135D02*
G01X47439Y32135D01*
G01X45176Y35600D02*
G01X45117Y35717D01*
G01X45003Y35831D01*
G01X44886Y35889D01*
G01X44655Y35889D01*
G01X44541Y35831D01*
G01X44424Y35717D01*
G01X44368Y35600D01*
G01X44309Y35427D01*
G01X44309Y35138D01*
G01X44368Y34965D01*
G01X44424Y34851D01*
G01X44541Y34734D01*
G01X44655Y34675D01*
G01X44886Y34675D01*
G01X45003Y34734D01*
G01X45117Y34851D01*
G01X45176Y34965D01*
G01X45176Y35138D01*
G01X44886Y35138D02*
G01X45176Y35138D01*
G01X45557Y35889D02*
G01X45557Y34675D01*
G01X45557Y35889D02*
G01X46364Y34675D01*
G01X46364Y35889D02*
G01X46364Y34675D01*
G01X46745Y35889D02*
G01X46745Y34675D01*
G01X46745Y35889D02*
G01X47149Y35889D01*
G01X47322Y35831D01*
G01X47439Y35717D01*
G01X47497Y35600D01*
G01X47553Y35427D01*
G01X47553Y35138D01*
G01X47497Y34965D01*
G01X47439Y34851D01*
G01X47322Y34734D01*
G01X47149Y34675D01*
G01X46745Y34675D01*
G01X44309Y38429D02*
G01X44772Y37215D01*
G01X45234Y38429D02*
G01X44772Y37215D01*
G01X46481Y38140D02*
G01X46423Y38257D01*
G01X46306Y38371D01*
G01X46192Y38429D01*
G01X45960Y38429D01*
G01X45846Y38371D01*
G01X45729Y38257D01*
G01X45671Y38140D01*
G01X45615Y37967D01*
G01X45615Y37678D01*
G01X45671Y37505D01*
G01X45729Y37391D01*
G01X45846Y37274D01*
G01X45960Y37215D01*
G01X46192Y37215D01*
G01X46306Y37274D01*
G01X46423Y37391D01*
G01X46481Y37505D01*
G01X47726Y38140D02*
G01X47670Y38257D01*
G01X47553Y38371D01*
G01X47439Y38429D01*
G01X47208Y38429D01*
G01X47091Y38371D01*
G01X46976Y38257D01*
G01X46918Y38140D01*
G01X46862Y37967D01*
G01X46862Y37678D01*
G01X46918Y37505D01*
G01X46976Y37391D01*
G01X47091Y37274D01*
G01X47208Y37215D01*
G01X47439Y37215D01*
G01X47553Y37274D01*
G01X47670Y37391D01*
G01X47726Y37505D01*
G54D31*
G01X17199Y41697D02*
G01X17199Y40608D01*
G01X17199Y41697D02*
G01X17666Y41697D01*
G01X17821Y41647D01*
G01X17872Y41593D01*
G01X17925Y41492D01*
G01X17925Y41388D01*
G01X17872Y41283D01*
G01X17821Y41230D01*
G01X17666Y41179D01*
G01X17199Y41179D02*
G01X17666Y41179D01*
G01X17821Y41126D01*
G01X17872Y41075D01*
G01X17925Y40971D01*
G01X17925Y40816D01*
G01X17872Y40712D01*
G01X17821Y40659D01*
G01X17666Y40608D01*
G01X17199Y40608D01*
G01X18268Y41697D02*
G01X18268Y40920D01*
G01X18319Y40763D01*
G01X18423Y40659D01*
G01X18581Y40608D01*
G01X18685Y40608D01*
G01X18840Y40659D01*
G01X18944Y40763D01*
G01X18995Y40920D01*
G01X18995Y41697D01*
G01X20066Y41697D02*
G01X19337Y40608D01*
G01X19337Y41697D02*
G01X20066Y41697D01*
G01X19337Y40608D02*
G01X20066Y40608D01*
G01X21136Y41697D02*
G01X20409Y40608D01*
G01X20409Y41697D02*
G01X21136Y41697D01*
G01X20409Y40608D02*
G01X21136Y40608D01*
G01X21479Y41697D02*
G01X21479Y40608D01*
G01X21479Y41697D02*
G01X22154Y41697D01*
G01X21479Y41179D02*
G01X21895Y41179D01*
G01X21479Y40608D02*
G01X22154Y40608D01*
G01X22497Y41697D02*
G01X22497Y40608D01*
G01X22497Y41697D02*
G01X22965Y41697D01*
G01X23120Y41647D01*
G01X23173Y41593D01*
G01X23224Y41492D01*
G01X23224Y41388D01*
G01X23173Y41283D01*
G01X23120Y41230D01*
G01X22965Y41179D01*
G01X22497Y41179D01*
G01X22860Y41179D02*
G01X23224Y40608D01*
G54D27*
G01X17523Y45859D02*
G01X17455Y45994D01*
G01X17320Y46131D01*
G01X17183Y46200D01*
G01X16908Y46200D01*
G01X16774Y46131D01*
G01X16637Y45994D01*
G01X16568Y45859D01*
G01X16499Y45653D01*
G01X16499Y45313D01*
G01X16568Y45110D01*
G01X16637Y44973D01*
G01X16774Y44836D01*
G01X16908Y44767D01*
G01X17183Y44767D01*
G01X17320Y44836D01*
G01X17455Y44973D01*
G01X17523Y45110D01*
G01X17523Y45313D01*
G01X17183Y45313D02*
G01X17523Y45313D01*
G01X19024Y46200D02*
G01X19024Y44767D01*
G01X19024Y46200D02*
G01X19636Y46200D01*
G01X19842Y46131D01*
G01X19911Y46062D01*
G01X19977Y45928D01*
G01X19977Y45791D01*
G01X19911Y45653D01*
G01X19842Y45585D01*
G01X19636Y45519D01*
G01X19024Y45519D01*
G01X19502Y45519D02*
G01X19977Y44767D01*
G01X21955Y46200D02*
G01X21955Y44767D01*
G01X21478Y46200D02*
G01X22433Y46200D01*
G01X24749Y46200D02*
G01X24069Y46200D01*
G01X24000Y45585D01*
G01X24069Y45653D01*
G01X24274Y45722D01*
G01X24478Y45722D01*
G01X24683Y45653D01*
G01X24818Y45519D01*
G01X24887Y45313D01*
G01X24887Y45176D01*
G01X24818Y44973D01*
G01X24683Y44836D01*
G01X24478Y44767D01*
G01X24274Y44767D01*
G01X24069Y44836D01*
G01X24000Y44904D01*
G01X23932Y45041D01*
G54D10*
G75*
G01X5485Y37881D02*
G03X8019Y37881I1267J-1547D01*
G01*
G75*
G01X9749Y24469D02*
G03X9749Y28431I1498J1981D01*
G01*
G75*
G01X26346Y37700D02*
G03X26341Y37446I-6096J0D01*
G01*
G75*
G01X21774Y37192D02*
G03X21687Y36982I-1524J508D01*
G01*
G54D30*
G75*
G01X44500Y10200D02*
G03X44500Y10200I-3000J0D01*
G01*
G54D10*
G75*
G01X38186Y39160D02*
G03X38186Y39160I-1796J0D01*
G01*
G75*
G01X38186Y29000D02*
G03X38186Y29000I-1796J0D01*
G01*
G75*
G01X16700Y18150D02*
G03X16700Y18150I-1500J0D01*
G01*
G75*
G01X8703Y17748D02*
G03X8703Y17748I-749J0D01*
G01*
G75*
G01X9704Y17748D02*
G03X9704Y17748I-1750J0D01*
G01*
M00*
M02*
